<svg width="32" height="32" viewBox="0 0 32 32" fill="none" xmlns="http://www.w3.org/2000/svg">
<rect width="32" height="32" rx="8" fill="#21AF85"/>
<path d="M22.6503 8.59003C20.8903 6.99003 18.5603 6.03003 16.0003 6.03003C10.5003 6.03003 6.03027 10.5 6.03027 16C6.03027 21.5 10.5003 25.97 16.0003 25.97C18.5603 25.97 20.8903 25.01 22.6503 23.41C24.6903 21.6 25.9703 18.94 25.9703 16C25.9703 13.06 24.6903 10.4 22.6503 8.59003ZM15.9703 20.39C15.9503 22.04 14.7203 22.44 13.5703 21.98C11.2003 21.03 9.53027 18.71 9.53027 16C9.53027 13.29 11.2003 10.97 13.5703 10.01C14.7203 9.55003 15.9503 9.96003 15.9703 11.6V20.39Z" fill="white"/>
</svg>
