<svg width="32" height="32" viewBox="0 0 32 32" fill="none" xmlns="http://www.w3.org/2000/svg">
<rect width="32" height="32" rx="8" fill="#EA445A"/>
<path d="M25.3 16.23H21.82C20.84 16.23 19.97 16.77 19.53 17.65L18.69 19.31C18.49 19.71 18.09 19.96 17.65 19.96H14.37C14.06 19.96 13.62 19.89 13.33 19.31L12.49 17.66C12.05 16.79 11.17 16.24 10.2 16.24H6.7C6.31 16.24 6 16.55 6 16.94V20.2C6 23.83 8.18 26 11.82 26H20.2C23.63 26 25.74 24.12 26 20.78V16.93C26 16.55 25.69 16.23 25.3 16.23Z" fill="white"/>
<path d="M16.75 6C16.75 5.59 16.41 5.25 16 5.25C15.59 5.25 15.25 5.59 15.25 6V8H16.75V6Z" fill="white"/>
<path d="M26 13.81V14.85C25.78 14.77 25.54 14.73 25.3 14.73H21.82C20.27 14.73 18.88 15.59 18.19 16.97L17.44 18.45H14.58L13.83 16.98C13.14 15.59 11.75 14.73 10.2 14.73H6.7C6.46 14.73 6.22 14.77 6 14.85V13.81C6 10.17 8.17 8 11.81 8H15.25V11.19L14.53 10.47C14.24 10.18 13.76 10.18 13.47 10.47C13.18 10.76 13.18 11.24 13.47 11.53L15.47 13.53C15.48 13.54 15.49 13.54 15.49 13.55C15.56 13.61 15.63 13.66 15.71 13.69C15.81 13.73 15.9 13.75 16 13.75C16.1 13.75 16.19 13.73 16.28 13.69C16.37 13.66 16.46 13.6 16.53 13.53L18.53 11.53C18.82 11.24 18.82 10.76 18.53 10.47C18.24 10.18 17.76 10.18 17.47 10.47L16.75 11.19V8H20.19C23.83 8 26 10.17 26 13.81Z" fill="white"/>
</svg>
