<svg width="32" height="32" viewBox="0 0 32 32" fill="none" xmlns="http://www.w3.org/2000/svg">
<rect width="32" height="32" rx="8" fill="#59A8D5"/>
<path d="M24.99 13.71C24.65 13.57 24.2 13.5 23.64 13.5H18.36C16.62 13.5 16 14.12 16 15.88V23.62C16 24.2 16.07 24.65 16.22 25C16.53 25.72 17.19 26 18.36 26H23.64C25.38 26 26 25.37 26 23.62V15.88C26 14.69 25.72 14.02 24.99 13.71ZM22 23.75H20C19.98 23.75 19.95 23.75 19.93 23.74C19.78 23.73 19.65 23.68 19.54 23.58C19.36 23.45 19.25 23.24 19.25 23C19.25 22.59 19.59 22.25 20 22.25H22C22.41 22.25 22.75 22.59 22.75 23C22.75 23.41 22.41 23.75 22 23.75Z" fill="white"/>
<path d="M24.9898 10.19V11C24.9898 11.55 24.5398 12 23.9898 12H18.3598C15.7998 12 14.4998 13.31 14.4998 15.88V25C14.4998 25.55 14.0498 26 13.4998 26H11.5498C11.1498 26 10.8298 25.68 10.8298 25.29C10.8298 24.89 11.1498 24.58 11.5498 24.58H13.4998V20.75H9.99977C7.77977 20.64 6.00977 18.81 6.00977 16.56V10.19C6.00977 7.88 7.88977 6 10.2098 6H20.7998C23.1098 6 24.9898 7.88 24.9898 10.19Z" fill="white"/>
</svg>
