<svg width="28" height="29" viewBox="0 0 28 29" fill="none" xmlns="http://www.w3.org/2000/svg">
<path opacity="0.25" d="M13.9998 23.3915C19.1545 23.3915 23.3332 19.2128 23.3332 14.0581C23.3332 8.90347 19.1545 4.72479 13.9998 4.72479C8.84518 4.72479 4.6665 8.90347 4.6665 14.0581C4.6665 19.2128 8.84518 23.3915 13.9998 23.3915Z" fill="#21AF85"/>
<path fill-rule="evenodd" clip-rule="evenodd" d="M13.9998 9.62476C14.3864 9.62476 14.6998 9.93816 14.6998 10.3248V13.7681L16.8281 15.8964C17.1015 16.1698 17.1015 16.613 16.8281 16.8864C16.5547 17.1598 16.1115 17.1598 15.8382 16.8864L13.5048 14.5531C13.3736 14.4218 13.2998 14.2437 13.2998 14.0581V10.3248C13.2998 9.93816 13.6132 9.62476 13.9998 9.62476Z" fill="#21AF85"/>
</svg>
