<svg width="28" height="29" viewBox="0 0 28 29" fill="none" xmlns="http://www.w3.org/2000/svg">
<path opacity="0.25" d="M12.9675 23.3915H15.0322C18.249 23.3915 19.8574 23.3915 20.9541 22.4471C22.0508 21.5027 22.2783 19.9219 22.7332 16.7604V16.7603L22.9934 14.9521C23.3475 12.4909 23.5246 11.2603 23.0202 10.2081C22.5157 9.15589 21.4421 8.51631 19.2947 7.23715L18.0022 6.4672C16.0522 5.3056 15.0772 4.72479 13.9998 4.72479C12.9225 4.72479 11.9475 5.3056 9.99747 6.4672L8.70495 7.23715L8.70495 7.23715C6.55761 8.51631 5.48394 9.15589 4.97951 10.2081C4.47508 11.2603 4.65216 12.4909 5.0063 14.9521L5.26649 16.7603C5.72141 19.9219 5.94887 21.5027 7.0456 22.4471C8.14232 23.3915 9.75072 23.3915 12.9675 23.3915Z" fill="#6F747A"/>
<path d="M11.6169 17.2287C11.3063 16.9985 10.8679 17.0636 10.6377 17.3742C10.4075 17.6848 10.4726 18.1232 10.7832 18.3534C11.6908 19.0261 12.8007 19.4244 14 19.4244C15.1994 19.4244 16.3093 19.0261 17.2169 18.3534C17.5275 18.1232 17.5926 17.6848 17.3624 17.3742C17.1322 17.0636 16.6938 16.9985 16.3832 17.2287C15.7034 17.7326 14.8829 18.0244 14 18.0244C13.1172 18.0244 12.2967 17.7326 11.6169 17.2287Z" fill="#6F747A"/>
</svg>
