<svg width="304" height="114" viewBox="0 0 304 114" fill="none" xmlns="http://www.w3.org/2000/svg">
<path d="M48.0269 18.864C48.0269 22.634 44.5169 25.286 39.9149 25.286C34.0129 25.286 31.0229 21.048 31.0229 15.484C31.0229 10.102 34.0649 5.838 39.8369 5.838C44.4389 5.838 48.0269 8.412 48.0269 12.182V12.754H43.1909C43.1909 10.622 42.2809 8.49 39.8629 8.49C36.6389 8.49 35.8849 12.598 35.8849 15.484C35.8849 18.448 36.6389 22.608 39.8629 22.608C42.2809 22.608 43.1909 20.424 43.1909 18.318H48.0269V18.864ZM55.2145 17.46V25H51.0025V5.058H55.2145V13.222C56.0205 11.922 57.3985 10.934 59.7125 10.934C63.1965 10.934 65.2505 13.274 65.2505 16.888V25H61.0385V17.356C61.0385 15.12 60.0505 13.742 58.1525 13.742C56.0725 13.742 55.2145 15.406 55.2145 17.46ZM78.1081 25L77.4581 23.128C76.8081 24.376 75.2481 25.26 72.7781 25.26C69.9961 25.26 67.9681 23.986 67.9681 21.282C67.9681 19.618 68.8521 18.448 70.2301 17.72C71.6341 16.992 73.3501 16.81 75.6381 16.81C76.2361 16.81 76.8341 16.836 77.4061 16.862V15.666C77.4061 14.106 76.7301 13.014 75.1441 13.014C73.6101 13.014 72.8821 13.872 72.8821 15.38H68.7741V15.094C68.7741 12.598 70.8541 10.934 75.1441 10.934C78.8101 10.934 81.6181 12.572 81.6181 16.186V25H78.1081ZM72.2841 21.048C72.2841 22.14 72.9861 22.946 74.4681 22.946C76.4181 22.946 77.4061 21.594 77.4061 19.566V18.812H76.7301C75.2221 18.812 73.8441 18.994 73.0641 19.514C72.5701 19.878 72.2841 20.372 72.2841 21.048ZM93.4711 24.584C92.7691 24.922 91.6771 25.156 90.5591 25.156C87.2311 25.156 85.8271 23.882 85.8271 20.554V13.222H83.9031V11.194H85.8271V8.724L90.0391 7.71V11.194H93.3151V13.222H90.0391V20.242C90.0391 21.724 90.1171 22.556 91.5731 22.712C92.0411 22.764 92.8471 22.712 93.4711 22.556V24.584ZM112.633 22.556C111.931 23.44 109.175 25.286 104.911 25.286C98.6195 25.286 95.0835 21.412 95.0835 15.38C95.0835 9.686 98.4635 5.864 104.391 5.838C108.577 5.812 112.165 7.762 112.165 11.506V11.766H107.329C107.329 9.816 106.185 8.464 104.079 8.464C101.011 8.464 99.9455 12.13 99.9195 15.016C99.8935 19.072 101.115 22.53 105.223 22.608C106.081 22.634 107.147 22.452 108.057 21.958V17.746H104.547V15.172H112.633V22.556ZM116.394 25V6.098H124.298C128.692 6.098 131.136 8.802 131.136 12.312C131.136 16.16 128.38 18.552 124.012 18.552H120.996V25H116.394ZM123.388 8.672H120.996V15.978H123.44C125.494 15.978 126.56 14.34 126.56 12.312C126.56 10.284 125.442 8.672 123.388 8.672ZM132.293 8.672V6.098H147.633V8.672H142.251V25H137.649V8.672H132.293ZM174.043 57V38.098H181.947C186.341 38.098 188.785 40.802 188.785 44.312C188.785 48.16 186.029 50.552 181.661 50.552H178.645V57H174.043ZM181.037 40.672H178.645V47.978H181.089C183.143 47.978 184.209 46.34 184.209 44.312C184.209 42.284 183.091 40.672 181.037 40.672ZM200.58 57L199.93 55.128C199.28 56.376 197.72 57.26 195.25 57.26C192.468 57.26 190.44 55.986 190.44 53.282C190.44 51.618 191.324 50.448 192.702 49.72C194.106 48.992 195.822 48.81 198.11 48.81C198.708 48.81 199.306 48.836 199.878 48.862V47.666C199.878 46.106 199.202 45.014 197.616 45.014C196.082 45.014 195.354 45.872 195.354 47.38H191.246V47.094C191.246 44.598 193.326 42.934 197.616 42.934C201.282 42.934 204.09 44.572 204.09 48.186V57H200.58ZM194.756 53.048C194.756 54.14 195.458 54.946 196.94 54.946C198.89 54.946 199.878 53.594 199.878 51.566V50.812H199.202C197.694 50.812 196.316 50.994 195.536 51.514C195.042 51.878 194.756 52.372 194.756 53.048ZM217.529 43.142V46.418C217.035 46.288 216.437 46.21 215.865 46.21C214.617 46.21 213.499 46.47 212.745 47.224C212.147 47.848 211.783 48.784 211.783 50.188V57H207.571V43.194H211.367L211.783 45.716C212.381 43.636 214.123 42.934 215.813 42.934C216.463 42.934 217.087 43.012 217.529 43.142ZM228.333 56.584C227.631 56.922 226.539 57.156 225.421 57.156C222.093 57.156 220.689 55.882 220.689 52.554V45.222H218.765V43.194H220.689V40.724L224.901 39.71V43.194H228.177V45.222H224.901V52.242C224.901 53.724 224.979 54.556 226.435 54.712C226.903 54.764 227.709 54.712 228.333 54.556V56.584ZM234.99 49.434V57H230.778V43.194H234.574L234.99 45.326C235.848 43.896 237.356 42.934 239.384 42.934C243.18 42.934 245.364 45.144 245.364 48.914V57H241.152V49.278C241.152 47.198 240.164 45.742 238.058 45.742C236.056 45.742 234.99 47.432 234.99 49.434ZM262.064 52.58C262.064 55.96 258.918 57.26 255.538 57.26C251.04 57.26 247.972 54.608 247.972 50.11C247.972 45.69 250.832 42.934 255.252 42.934C259.542 42.934 262.246 45.43 262.246 49.72C262.246 50.11 262.22 50.526 262.194 50.942H252.34C252.522 53.1 253.432 55.206 255.538 55.206C257.176 55.206 257.852 54.218 257.852 52.58H262.064ZM255.252 44.988C253.25 44.988 252.548 46.886 252.366 48.914H258.138C258.138 46.756 257.41 44.988 255.252 44.988ZM274.861 43.142V46.418C274.367 46.288 273.769 46.21 273.197 46.21C271.949 46.21 270.831 46.47 270.077 47.224C269.479 47.848 269.115 48.784 269.115 50.188V57H264.903V43.194H268.699L269.115 45.716C269.713 43.636 271.455 42.934 273.145 42.934C273.795 42.934 274.419 43.012 274.861 43.142Z" fill="#21AF85"/>
<path d="M156.578 17.746V14.964H165.236V17.746H156.578ZM185.313 18.474V25H180.711V18.786L173.639 6.098H179.047L183.935 15.302L188.771 6.098H191.839L185.313 18.474ZM206.93 18.11C206.93 22.582 203.628 25.26 199.312 25.26C194.996 25.26 191.694 22.582 191.694 18.11C191.694 13.638 194.996 10.934 199.312 10.934C203.628 10.934 206.93 13.638 206.93 18.11ZM196.036 18.11C196.036 20.736 196.764 23.206 199.312 23.206C201.86 23.206 202.588 20.736 202.588 18.11C202.588 15.484 201.86 12.988 199.312 12.988C196.764 12.988 196.036 15.484 196.036 18.11ZM219.807 25L219.391 22.92C218.923 24.168 217.103 25.26 215.101 25.26C211.175 25.26 209.381 22.712 209.381 18.682V11.194H213.593V18.396C213.593 20.788 214.243 22.452 216.453 22.452C218.533 22.452 219.391 20.71 219.391 18.63V11.194H223.603V25H219.807ZM237.245 11.142V14.418C236.751 14.288 236.153 14.21 235.581 14.21C234.333 14.21 233.215 14.47 232.461 15.224C231.863 15.848 231.499 16.784 231.499 18.188V25H227.287V11.194H231.083L231.499 13.716C232.097 11.636 233.839 10.934 235.529 10.934C236.179 10.934 236.803 11.012 237.245 11.142ZM245.603 25L252.155 6.098H257.823L264.349 25H259.279L257.771 20.424H250.075L248.489 25H245.603ZM250.959 17.876H256.939L254.027 9.036L250.959 17.876ZM266.836 25V6.098H271.438V25H266.836ZM44.1786 54.426V57H30.8146V38.098H35.4166V54.426H44.1786ZM54.9138 57L54.2638 55.128C53.6138 56.376 52.0538 57.26 49.5838 57.26C46.8018 57.26 44.7738 55.986 44.7738 53.282C44.7738 51.618 45.6578 50.448 47.0358 49.72C48.4398 48.992 50.1558 48.81 52.4438 48.81C53.0418 48.81 53.6398 48.836 54.2118 48.862V47.666C54.2118 46.106 53.5358 45.014 51.9498 45.014C50.4158 45.014 49.6878 45.872 49.6878 47.38H45.5798V47.094C45.5798 44.598 47.6598 42.934 51.9498 42.934C55.6158 42.934 58.4238 44.572 58.4238 48.186V57H54.9138ZM49.0898 53.048C49.0898 54.14 49.7918 54.946 51.2738 54.946C53.2238 54.946 54.2118 53.594 54.2118 51.566V50.812H53.5358C52.0278 50.812 50.6498 50.994 49.8698 51.514C49.3758 51.878 49.0898 52.372 49.0898 53.048ZM66.1167 49.434V57H61.9047V43.194H65.7007L66.1167 45.326C66.9747 43.896 68.4827 42.934 70.5107 42.934C74.3067 42.934 76.4907 45.144 76.4907 48.914V57H72.2787V49.278C72.2787 47.198 71.2907 45.742 69.1847 45.742C67.1827 45.742 66.1167 47.432 66.1167 49.434ZM86.5868 62.824C82.3748 62.824 79.6708 61.134 79.6708 57.988V57.78H83.8828C83.8308 59.652 84.8448 60.744 86.7168 60.744C89.3688 60.744 90.0188 59.106 90.0188 56.454V54.452C89.2388 55.778 87.8088 56.584 85.5468 56.584C81.5168 56.584 79.0988 53.646 79.0988 49.772C79.0988 46.002 81.4908 42.934 85.4168 42.934C87.4188 42.934 89.1608 43.688 90.0188 45.118L90.4348 43.194H94.2308V56.064C94.2308 60.692 91.2148 62.824 86.5868 62.824ZM86.7428 54.088C89.1348 54.088 90.0188 51.956 90.0188 49.72C90.0188 47.484 89.1088 45.352 86.7168 45.352C84.3508 45.352 83.4408 47.484 83.4408 49.72C83.4408 51.904 84.4028 54.088 86.7428 54.088ZM108.05 57L107.634 54.92C107.166 56.168 105.346 57.26 103.344 57.26C99.4185 57.26 97.6245 54.712 97.6245 50.682V43.194H101.836V50.396C101.836 52.788 102.486 54.452 104.696 54.452C106.776 54.452 107.634 52.71 107.634 50.63V43.194H111.846V57H108.05ZM124.916 57L124.266 55.128C123.616 56.376 122.056 57.26 119.586 57.26C116.804 57.26 114.776 55.986 114.776 53.282C114.776 51.618 115.66 50.448 117.038 49.72C118.442 48.992 120.158 48.81 122.446 48.81C123.044 48.81 123.642 48.836 124.214 48.862V47.666C124.214 46.106 123.538 45.014 121.952 45.014C120.418 45.014 119.69 45.872 119.69 47.38H115.582V47.094C115.582 44.598 117.662 42.934 121.952 42.934C125.618 42.934 128.426 44.572 128.426 48.186V57H124.916ZM119.092 53.048C119.092 54.14 119.794 54.946 121.276 54.946C123.226 54.946 124.214 53.594 124.214 51.566V50.812H123.538C122.03 50.812 120.652 50.994 119.872 51.514C119.378 51.878 119.092 52.372 119.092 53.048ZM138.511 62.824C134.299 62.824 131.595 61.134 131.595 57.988V57.78H135.807C135.755 59.652 136.769 60.744 138.641 60.744C141.293 60.744 141.943 59.106 141.943 56.454V54.452C141.163 55.778 139.733 56.584 137.471 56.584C133.441 56.584 131.023 53.646 131.023 49.772C131.023 46.002 133.415 42.934 137.341 42.934C139.343 42.934 141.085 43.688 141.943 45.118L142.359 43.194H146.155V56.064C146.155 60.692 143.139 62.824 138.511 62.824ZM138.667 54.088C141.059 54.088 141.943 51.956 141.943 49.72C141.943 47.484 141.033 45.352 138.641 45.352C136.275 45.352 135.365 47.484 135.365 49.72C135.365 51.904 136.327 54.088 138.667 54.088ZM162.964 52.58C162.964 55.96 159.818 57.26 156.438 57.26C151.94 57.26 148.872 54.608 148.872 50.11C148.872 45.69 151.732 42.934 156.152 42.934C160.442 42.934 163.146 45.43 163.146 49.72C163.146 50.11 163.12 50.526 163.094 50.942H153.24C153.422 53.1 154.332 55.206 156.438 55.206C158.076 55.206 158.752 54.218 158.752 52.58H162.964ZM156.152 44.988C154.15 44.988 153.448 46.886 153.266 48.914H159.038C159.038 46.756 158.31 44.988 156.152 44.988Z" fill="#0F1721"/>
<path d="M18.3094 77.242V83.416C18.3094 84.284 18.5194 84.928 18.9394 85.348C19.3687 85.768 19.9614 85.978 20.7174 85.978C21.464 85.978 22.0474 85.768 22.4674 85.348C22.8967 84.928 23.1114 84.284 23.1114 83.416V77.242H24.3854V83.402C24.3854 84.214 24.222 84.9 23.8954 85.46C23.5687 86.0107 23.1254 86.4213 22.5654 86.692C22.0147 86.9627 21.394 87.098 20.7034 87.098C20.0127 87.098 19.3874 86.9627 18.8274 86.692C18.2767 86.4213 17.838 86.0107 17.5114 85.46C17.194 84.9 17.0354 84.214 17.0354 83.402V77.242H18.3094ZM30.2486 79.188C31.182 79.188 31.938 79.4727 32.5166 80.042C33.0953 80.602 33.3846 81.414 33.3846 82.478V87H32.1246V82.66C32.1246 81.8947 31.9333 81.3113 31.5506 80.91C31.168 80.4993 30.6453 80.294 29.9826 80.294C29.3106 80.294 28.774 80.504 28.3726 80.924C27.9806 81.344 27.7846 81.9553 27.7846 82.758V87H26.5106V79.328H27.7846V80.42C28.0366 80.028 28.3773 79.7247 28.8066 79.51C29.2453 79.2953 29.726 79.188 30.2486 79.188ZM36.7397 76.64V87H35.4657V76.64H36.7397ZM42.257 87.126C41.5383 87.126 40.885 86.9627 40.297 86.636C39.7183 86.3093 39.261 85.8473 38.925 85.25C38.5983 84.6433 38.435 83.9433 38.435 83.15C38.435 82.366 38.603 81.6753 38.939 81.078C39.2843 80.4713 39.751 80.0093 40.339 79.692C40.927 79.3653 41.585 79.202 42.313 79.202C43.041 79.202 43.699 79.3653 44.287 79.692C44.875 80.0093 45.337 80.4667 45.673 81.064C46.0183 81.6613 46.191 82.3567 46.191 83.15C46.191 83.9433 46.0137 84.6433 45.659 85.25C45.3137 85.8473 44.8423 86.3093 44.245 86.636C43.6477 86.9627 42.985 87.126 42.257 87.126ZM42.257 86.006C42.7143 86.006 43.1437 85.8987 43.545 85.684C43.9463 85.4693 44.2683 85.1473 44.511 84.718C44.763 84.2887 44.889 83.766 44.889 83.15C44.889 82.534 44.7677 82.0113 44.525 81.582C44.2823 81.1527 43.965 80.8353 43.573 80.63C43.181 80.4153 42.7563 80.308 42.299 80.308C41.8323 80.308 41.403 80.4153 41.011 80.63C40.6283 80.8353 40.3203 81.1527 40.087 81.582C39.8537 82.0113 39.737 82.534 39.737 83.15C39.737 83.7753 39.849 84.3027 40.073 84.732C40.3063 85.1613 40.6143 85.4833 40.997 85.698C41.3797 85.9033 41.7997 86.006 42.257 86.006ZM47.3901 83.15C47.3901 82.3567 47.5488 81.666 47.8661 81.078C48.1834 80.4807 48.6221 80.0187 49.1821 79.692C49.7514 79.3653 50.4001 79.202 51.1281 79.202C52.0708 79.202 52.8454 79.4307 53.4521 79.888C54.0681 80.3453 54.4741 80.98 54.6701 81.792H53.2981C53.1674 81.3253 52.9108 80.9567 52.5281 80.686C52.1548 80.4153 51.6881 80.28 51.1281 80.28C50.4001 80.28 49.8121 80.532 49.3641 81.036C48.9161 81.5307 48.6921 82.2353 48.6921 83.15C48.6921 84.074 48.9161 84.788 49.3641 85.292C49.8121 85.796 50.4001 86.048 51.1281 86.048C51.6881 86.048 52.1548 85.9173 52.5281 85.656C52.9014 85.3947 53.1581 85.0213 53.2981 84.536H54.6701C54.4648 85.32 54.0541 85.95 53.4381 86.426C52.8221 86.8927 52.0521 87.126 51.1281 87.126C50.4001 87.126 49.7514 86.9627 49.1821 86.636C48.6221 86.3093 48.1834 85.8473 47.8661 85.25C47.5488 84.6527 47.3901 83.9527 47.3901 83.15ZM60.654 87L57.644 83.612V87H56.37V76.64H57.644V82.73L60.598 79.328H62.376L58.764 83.15L62.39 87H60.654ZM68.5815 77.242V87H67.3075V77.242H68.5815ZM74.4908 79.188C75.4241 79.188 76.1801 79.4727 76.7588 80.042C77.3375 80.602 77.6268 81.414 77.6268 82.478V87H76.3668V82.66C76.3668 81.8947 76.1755 81.3113 75.7928 80.91C75.4101 80.4993 74.8875 80.294 74.2248 80.294C73.5528 80.294 73.0161 80.504 72.6148 80.924C72.2228 81.344 72.0268 81.9553 72.0268 82.758V87H70.7528V79.328H72.0268V80.42C72.2788 80.028 72.6195 79.7247 73.0488 79.51C73.4875 79.2953 73.9681 79.188 74.4908 79.188ZM82.8299 80.378H81.2199V87H79.9459V80.378H78.9519V79.328H79.9459V78.782C79.9459 77.9233 80.1652 77.298 80.6039 76.906C81.0519 76.5047 81.7659 76.304 82.7459 76.304V77.368C82.1859 77.368 81.7892 77.48 81.5559 77.704C81.3319 77.9187 81.2199 78.278 81.2199 78.782V79.328H82.8299V80.378ZM84.9733 78.082C84.7306 78.082 84.5253 77.998 84.3573 77.83C84.1893 77.662 84.1053 77.4567 84.1053 77.214C84.1053 76.9713 84.1893 76.766 84.3573 76.598C84.5253 76.43 84.7306 76.346 84.9733 76.346C85.2066 76.346 85.4026 76.43 85.5613 76.598C85.7293 76.766 85.8133 76.9713 85.8133 77.214C85.8133 77.4567 85.7293 77.662 85.5613 77.83C85.4026 77.998 85.2066 78.082 84.9733 78.082ZM85.5893 79.328V87H84.3153V79.328H85.5893ZM91.4986 79.188C92.432 79.188 93.188 79.4727 93.7666 80.042C94.3453 80.602 94.6346 81.414 94.6346 82.478V87H93.3746V82.66C93.3746 81.8947 93.1833 81.3113 92.8006 80.91C92.418 80.4993 91.8953 80.294 91.2326 80.294C90.5606 80.294 90.024 80.504 89.6226 80.924C89.2306 81.344 89.0346 81.9553 89.0346 82.758V87H87.7606V79.328H89.0346V80.42C89.2866 80.028 89.6273 79.7247 90.0566 79.51C90.4953 79.2953 90.976 79.188 91.4986 79.188ZM97.3737 78.082C97.131 78.082 96.9257 77.998 96.7577 77.83C96.5897 77.662 96.5057 77.4567 96.5057 77.214C96.5057 76.9713 96.5897 76.766 96.7577 76.598C96.9257 76.43 97.131 76.346 97.3737 76.346C97.607 76.346 97.803 76.43 97.9617 76.598C98.1297 76.766 98.2137 76.9713 98.2137 77.214C98.2137 77.4567 98.1297 77.662 97.9617 77.83C97.803 77.998 97.607 78.082 97.3737 78.082ZM97.9897 79.328V87H96.7157V79.328H97.9897ZM101.715 80.378V84.9C101.715 85.2733 101.794 85.5393 101.953 85.698C102.112 85.8473 102.387 85.922 102.779 85.922H103.717V87H102.569C101.86 87 101.328 86.8367 100.973 86.51C100.618 86.1833 100.441 85.6467 100.441 84.9V80.378H99.447V79.328H100.441V77.396H101.715V79.328H103.717V80.378H101.715ZM112.261 82.87C112.261 83.1127 112.247 83.3693 112.219 83.64H106.087C106.133 84.396 106.39 84.9887 106.857 85.418C107.333 85.838 107.907 86.048 108.579 86.048C109.129 86.048 109.587 85.922 109.951 85.67C110.324 85.4087 110.585 85.0633 110.735 84.634H112.107C111.901 85.3713 111.491 85.9733 110.875 86.44C110.259 86.8973 109.493 87.126 108.579 87.126C107.851 87.126 107.197 86.9627 106.619 86.636C106.049 86.3093 105.601 85.8473 105.275 85.25C104.948 84.6433 104.785 83.9433 104.785 83.15C104.785 82.3567 104.943 81.6613 105.261 81.064C105.578 80.4667 106.021 80.0093 106.591 79.692C107.169 79.3653 107.832 79.202 108.579 79.202C109.307 79.202 109.951 79.3607 110.511 79.678C111.071 79.9953 111.5 80.434 111.799 80.994C112.107 81.5447 112.261 82.17 112.261 82.87ZM110.945 82.604C110.945 82.1187 110.837 81.7033 110.623 81.358C110.408 81.0033 110.114 80.7373 109.741 80.56C109.377 80.3733 108.971 80.28 108.523 80.28C107.879 80.28 107.328 80.4853 106.871 80.896C106.423 81.3067 106.166 81.876 106.101 82.604H110.945ZM117.199 82.114C117.199 81.162 117.413 80.308 117.843 79.552C118.272 78.7867 118.855 78.1893 119.593 77.76C120.339 77.3307 121.165 77.116 122.071 77.116C123.135 77.116 124.063 77.3727 124.857 77.886C125.65 78.3993 126.229 79.1273 126.593 80.07H125.067C124.796 79.482 124.404 79.0293 123.891 78.712C123.387 78.3947 122.78 78.236 122.071 78.236C121.389 78.236 120.778 78.3947 120.237 78.712C119.695 79.0293 119.271 79.482 118.963 80.07C118.655 80.6487 118.501 81.33 118.501 82.114C118.501 82.8887 118.655 83.57 118.963 84.158C119.271 84.7367 119.695 85.1847 120.237 85.502C120.778 85.8193 121.389 85.978 122.071 85.978C122.78 85.978 123.387 85.824 123.891 85.516C124.404 85.1987 124.796 84.746 125.067 84.158H126.593C126.229 85.0913 125.65 85.8147 124.857 86.328C124.063 86.832 123.135 87.084 122.071 87.084C121.165 87.084 120.339 86.874 119.593 86.454C118.855 86.0247 118.272 85.432 117.843 84.676C117.413 83.92 117.199 83.066 117.199 82.114ZM131.835 87.126C131.116 87.126 130.463 86.9627 129.875 86.636C129.296 86.3093 128.839 85.8473 128.503 85.25C128.176 84.6433 128.013 83.9433 128.013 83.15C128.013 82.366 128.181 81.6753 128.517 81.078C128.862 80.4713 129.329 80.0093 129.917 79.692C130.505 79.3653 131.163 79.202 131.891 79.202C132.619 79.202 133.277 79.3653 133.865 79.692C134.453 80.0093 134.915 80.4667 135.251 81.064C135.596 81.6613 135.769 82.3567 135.769 83.15C135.769 83.9433 135.592 84.6433 135.237 85.25C134.892 85.8473 134.42 86.3093 133.823 86.636C133.226 86.9627 132.563 87.126 131.835 87.126ZM131.835 86.006C132.292 86.006 132.722 85.8987 133.123 85.684C133.524 85.4693 133.846 85.1473 134.089 84.718C134.341 84.2887 134.467 83.766 134.467 83.15C134.467 82.534 134.346 82.0113 134.103 81.582C133.86 81.1527 133.543 80.8353 133.151 80.63C132.759 80.4153 132.334 80.308 131.877 80.308C131.41 80.308 130.981 80.4153 130.589 80.63C130.206 80.8353 129.898 81.1527 129.665 81.582C129.432 82.0113 129.315 82.534 129.315 83.15C129.315 83.7753 129.427 84.3027 129.651 84.732C129.884 85.1613 130.192 85.4833 130.575 85.698C130.958 85.9033 131.378 86.006 131.835 86.006ZM141.182 79.188C142.116 79.188 142.872 79.4727 143.45 80.042C144.029 80.602 144.318 81.414 144.318 82.478V87H143.058V82.66C143.058 81.8947 142.867 81.3113 142.484 80.91C142.102 80.4993 141.579 80.294 140.916 80.294C140.244 80.294 139.708 80.504 139.306 80.924C138.914 81.344 138.718 81.9553 138.718 82.758V87H137.444V79.328H138.718V80.42C138.97 80.028 139.311 79.7247 139.74 79.51C140.179 79.2953 140.66 79.188 141.182 79.188ZM149.255 85.824L151.635 79.328H152.993L149.983 87H148.499L145.489 79.328H146.861L149.255 85.824ZM161.247 82.87C161.247 83.1127 161.233 83.3693 161.205 83.64H155.073C155.12 84.396 155.376 84.9887 155.843 85.418C156.319 85.838 156.893 86.048 157.565 86.048C158.116 86.048 158.573 85.922 158.937 85.67C159.31 85.4087 159.572 85.0633 159.721 84.634H161.093C160.888 85.3713 160.477 85.9733 159.861 86.44C159.245 86.8973 158.48 87.126 157.565 87.126C156.837 87.126 156.184 86.9627 155.605 86.636C155.036 86.3093 154.588 85.8473 154.261 85.25C153.934 84.6433 153.771 83.9433 153.771 83.15C153.771 82.3567 153.93 81.6613 154.247 81.064C154.564 80.4667 155.008 80.0093 155.577 79.692C156.156 79.3653 156.818 79.202 157.565 79.202C158.293 79.202 158.937 79.3607 159.497 79.678C160.057 79.9953 160.486 80.434 160.785 80.994C161.093 81.5447 161.247 82.17 161.247 82.87ZM159.931 82.604C159.931 82.1187 159.824 81.7033 159.609 81.358C159.394 81.0033 159.1 80.7373 158.727 80.56C158.363 80.3733 157.957 80.28 157.509 80.28C156.865 80.28 156.314 80.4853 155.857 80.896C155.409 81.3067 155.152 81.876 155.087 82.604H159.931ZM164.203 80.574C164.427 80.1353 164.744 79.7947 165.155 79.552C165.575 79.3093 166.083 79.188 166.681 79.188V80.504H166.345C164.917 80.504 164.203 81.2787 164.203 82.828V87H162.929V79.328H164.203V80.574ZM170.867 87.126C170.279 87.126 169.752 87.028 169.285 86.832C168.819 86.6267 168.45 86.3467 168.179 85.992C167.909 85.628 167.759 85.2127 167.731 84.746H169.047C169.085 85.1287 169.262 85.4413 169.579 85.684C169.906 85.9267 170.331 86.048 170.853 86.048C171.339 86.048 171.721 85.9407 172.001 85.726C172.281 85.5113 172.421 85.2407 172.421 84.914C172.421 84.578 172.272 84.3307 171.973 84.172C171.675 84.004 171.213 83.8407 170.587 83.682C170.018 83.5327 169.551 83.3833 169.187 83.234C168.833 83.0753 168.525 82.8467 168.263 82.548C168.011 82.24 167.885 81.8387 167.885 81.344C167.885 80.952 168.002 80.5927 168.235 80.266C168.469 79.9393 168.8 79.6827 169.229 79.496C169.659 79.3 170.149 79.202 170.699 79.202C171.549 79.202 172.235 79.4167 172.757 79.846C173.28 80.2753 173.56 80.8633 173.597 81.61H172.323C172.295 81.2087 172.132 80.8867 171.833 80.644C171.544 80.4013 171.152 80.28 170.657 80.28C170.2 80.28 169.836 80.378 169.565 80.574C169.295 80.77 169.159 81.0267 169.159 81.344C169.159 81.596 169.239 81.806 169.397 81.974C169.565 82.1327 169.771 82.2633 170.013 82.366C170.265 82.4593 170.611 82.5667 171.049 82.688C171.6 82.8373 172.048 82.9867 172.393 83.136C172.739 83.276 173.033 83.4907 173.275 83.78C173.527 84.0693 173.658 84.4473 173.667 84.914C173.667 85.334 173.551 85.712 173.317 86.048C173.084 86.384 172.753 86.65 172.323 86.846C171.903 87.0327 171.418 87.126 170.867 87.126ZM174.99 83.136C174.99 82.352 175.148 81.666 175.466 81.078C175.783 80.4807 176.217 80.0187 176.768 79.692C177.328 79.3653 177.948 79.202 178.63 79.202C179.302 79.202 179.885 79.3467 180.38 79.636C180.874 79.9253 181.243 80.2893 181.486 80.728V79.328H182.774V87H181.486V85.572C181.234 86.02 180.856 86.3933 180.352 86.692C179.857 86.9813 179.278 87.126 178.616 87.126C177.934 87.126 177.318 86.958 176.768 86.622C176.217 86.286 175.783 85.8147 175.466 85.208C175.148 84.6013 174.99 83.9107 174.99 83.136ZM181.486 83.15C181.486 82.5713 181.369 82.0673 181.136 81.638C180.902 81.2087 180.585 80.882 180.184 80.658C179.792 80.4247 179.358 80.308 178.882 80.308C178.406 80.308 177.972 80.42 177.58 80.644C177.188 80.868 176.875 81.1947 176.642 81.624C176.408 82.0533 176.292 82.5573 176.292 83.136C176.292 83.724 176.408 84.2373 176.642 84.676C176.875 85.1053 177.188 85.4367 177.58 85.67C177.972 85.894 178.406 86.006 178.882 86.006C179.358 86.006 179.792 85.894 180.184 85.67C180.585 85.4367 180.902 85.1053 181.136 84.676C181.369 84.2373 181.486 83.7287 181.486 83.15ZM186.481 80.378V84.9C186.481 85.2733 186.56 85.5393 186.719 85.698C186.877 85.8473 187.153 85.922 187.545 85.922H188.483V87H187.335C186.625 87 186.093 86.8367 185.739 86.51C185.384 86.1833 185.207 85.6467 185.207 84.9V80.378H184.213V79.328H185.207V77.396H186.481V79.328H188.483V80.378H186.481ZM190.684 78.082C190.442 78.082 190.236 77.998 190.068 77.83C189.9 77.662 189.816 77.4567 189.816 77.214C189.816 76.9713 189.9 76.766 190.068 76.598C190.236 76.43 190.442 76.346 190.684 76.346C190.918 76.346 191.114 76.43 191.272 76.598C191.44 76.766 191.524 76.9713 191.524 77.214C191.524 77.4567 191.44 77.662 191.272 77.83C191.114 77.998 190.918 78.082 190.684 78.082ZM191.3 79.328V87H190.026V79.328H191.3ZM196.818 87.126C196.099 87.126 195.446 86.9627 194.858 86.636C194.279 86.3093 193.822 85.8473 193.486 85.25C193.159 84.6433 192.996 83.9433 192.996 83.15C192.996 82.366 193.164 81.6753 193.5 81.078C193.845 80.4713 194.312 80.0093 194.9 79.692C195.488 79.3653 196.146 79.202 196.874 79.202C197.602 79.202 198.26 79.3653 198.848 79.692C199.436 80.0093 199.898 80.4667 200.234 81.064C200.579 81.6613 200.752 82.3567 200.752 83.15C200.752 83.9433 200.574 84.6433 200.22 85.25C199.874 85.8473 199.403 86.3093 198.806 86.636C198.208 86.9627 197.546 87.126 196.818 87.126ZM196.818 86.006C197.275 86.006 197.704 85.8987 198.106 85.684C198.507 85.4693 198.829 85.1473 199.072 84.718C199.324 84.2887 199.45 83.766 199.45 83.15C199.45 82.534 199.328 82.0113 199.086 81.582C198.843 81.1527 198.526 80.8353 198.134 80.63C197.742 80.4153 197.317 80.308 196.86 80.308C196.393 80.308 195.964 80.4153 195.572 80.63C195.189 80.8353 194.881 81.1527 194.648 81.582C194.414 82.0113 194.298 82.534 194.298 83.15C194.298 83.7753 194.41 84.3027 194.634 84.732C194.867 85.1613 195.175 85.4833 195.558 85.698C195.94 85.9033 196.36 86.006 196.818 86.006ZM206.165 79.188C207.098 79.188 207.854 79.4727 208.433 80.042C209.011 80.602 209.301 81.414 209.301 82.478V87H208.041V82.66C208.041 81.8947 207.849 81.3113 207.467 80.91C207.084 80.4993 206.561 80.294 205.899 80.294C205.227 80.294 204.69 80.504 204.289 80.924C203.897 81.344 203.701 81.9553 203.701 82.758V87H202.427V79.328H203.701V80.42C203.953 80.028 204.293 79.7247 204.723 79.51C205.161 79.2953 205.642 79.188 206.165 79.188ZM214.098 87.126C213.51 87.126 212.982 87.028 212.516 86.832C212.049 86.6267 211.68 86.3467 211.41 85.992C211.139 85.628 210.99 85.2127 210.962 84.746H212.278C212.315 85.1287 212.492 85.4413 212.81 85.684C213.136 85.9267 213.561 86.048 214.084 86.048C214.569 86.048 214.952 85.9407 215.232 85.726C215.512 85.5113 215.652 85.2407 215.652 84.914C215.652 84.578 215.502 84.3307 215.204 84.172C214.905 84.004 214.443 83.8407 213.818 83.682C213.248 83.5327 212.782 83.3833 212.418 83.234C212.063 83.0753 211.755 82.8467 211.494 82.548C211.242 82.24 211.116 81.8387 211.116 81.344C211.116 80.952 211.232 80.5927 211.466 80.266C211.699 79.9393 212.03 79.6827 212.46 79.496C212.889 79.3 213.379 79.202 213.93 79.202C214.779 79.202 215.465 79.4167 215.988 79.846C216.51 80.2753 216.79 80.8633 216.828 81.61H215.554C215.526 81.2087 215.362 80.8867 215.064 80.644C214.774 80.4013 214.382 80.28 213.888 80.28C213.43 80.28 213.066 80.378 212.796 80.574C212.525 80.77 212.39 81.0267 212.39 81.344C212.39 81.596 212.469 81.806 212.628 81.974C212.796 82.1327 213.001 82.2633 213.244 82.366C213.496 82.4593 213.841 82.5667 214.28 82.688C214.83 82.8373 215.278 82.9867 215.624 83.136C215.969 83.276 216.263 83.4907 216.506 83.78C216.758 84.0693 216.888 84.4473 216.898 84.914C216.898 85.334 216.781 85.712 216.548 86.048C216.314 86.384 215.983 86.65 215.554 86.846C215.134 87.0327 214.648 87.126 214.098 87.126ZM219.102 87.084C218.859 87.084 218.654 87 218.486 86.832C218.318 86.664 218.234 86.4587 218.234 86.216C218.234 85.9733 218.318 85.768 218.486 85.6C218.654 85.432 218.859 85.348 219.102 85.348C219.335 85.348 219.531 85.432 219.69 85.6C219.858 85.768 219.942 85.9733 219.942 86.216C219.942 86.4587 219.858 86.664 219.69 86.832C219.531 87 219.335 87.084 219.102 87.084ZM219.102 81.092C218.859 81.092 218.654 81.008 218.486 80.84C218.318 80.672 218.234 80.4667 218.234 80.224C218.234 79.9813 218.318 79.776 218.486 79.608C218.654 79.44 218.859 79.356 219.102 79.356C219.335 79.356 219.531 79.44 219.69 79.608C219.858 79.776 219.942 79.9813 219.942 80.224C219.942 80.4667 219.858 80.672 219.69 80.84C219.531 81.008 219.335 81.092 219.102 81.092ZM224.933 82.114C224.933 81.162 225.148 80.308 225.577 79.552C226.006 78.7867 226.59 78.1893 227.327 77.76C228.074 77.3307 228.9 77.116 229.805 77.116C230.869 77.116 231.798 77.3727 232.591 77.886C233.384 78.3993 233.963 79.1273 234.327 80.07H232.801C232.53 79.482 232.138 79.0293 231.625 78.712C231.121 78.3947 230.514 78.236 229.805 78.236C229.124 78.236 228.512 78.3947 227.971 78.712C227.43 79.0293 227.005 79.482 226.697 80.07C226.389 80.6487 226.235 81.33 226.235 82.114C226.235 82.8887 226.389 83.57 226.697 84.158C227.005 84.7367 227.43 85.1847 227.971 85.502C228.512 85.8193 229.124 85.978 229.805 85.978C230.514 85.978 231.121 85.824 231.625 85.516C232.138 85.1987 232.53 84.746 232.801 84.158H234.327C233.963 85.0913 233.384 85.8147 232.591 86.328C231.798 86.832 230.869 87.084 229.805 87.084C228.9 87.084 228.074 86.874 227.327 86.454C226.59 86.0247 226.006 85.432 225.577 84.676C225.148 83.92 224.933 83.066 224.933 82.114ZM240.032 79.188C240.61 79.188 241.133 79.314 241.6 79.566C242.066 79.8087 242.43 80.1773 242.692 80.672C242.962 81.1667 243.098 81.7687 243.098 82.478V87H241.838V82.66C241.838 81.8947 241.646 81.3113 241.264 80.91C240.881 80.4993 240.358 80.294 239.696 80.294C239.024 80.294 238.487 80.504 238.086 80.924C237.694 81.344 237.498 81.9553 237.498 82.758V87H236.224V76.64H237.498V80.42C237.75 80.028 238.095 79.7247 238.534 79.51C238.982 79.2953 239.481 79.188 240.032 79.188ZM244.703 83.136C244.703 82.352 244.861 81.666 245.179 81.078C245.496 80.4807 245.93 80.0187 246.481 79.692C247.041 79.3653 247.661 79.202 248.343 79.202C249.015 79.202 249.598 79.3467 250.093 79.636C250.587 79.9253 250.956 80.2893 251.199 80.728V79.328H252.487V87H251.199V85.572C250.947 86.02 250.569 86.3933 250.065 86.692C249.57 86.9813 248.991 87.126 248.329 87.126C247.647 87.126 247.031 86.958 246.481 86.622C245.93 86.286 245.496 85.8147 245.179 85.208C244.861 84.6013 244.703 83.9107 244.703 83.136ZM251.199 83.15C251.199 82.5713 251.082 82.0673 250.849 81.638C250.615 81.2087 250.298 80.882 249.897 80.658C249.505 80.4247 249.071 80.308 248.595 80.308C248.119 80.308 247.685 80.42 247.293 80.644C246.901 80.868 246.588 81.1947 246.355 81.624C246.121 82.0533 246.005 82.5573 246.005 83.136C246.005 83.724 246.121 84.2373 246.355 84.676C246.588 85.1053 246.901 85.4367 247.293 85.67C247.685 85.894 248.119 86.006 248.595 86.006C249.071 86.006 249.505 85.894 249.897 85.67C250.298 85.4367 250.615 85.1053 250.849 84.676C251.082 84.2373 251.199 83.7287 251.199 83.15ZM256.194 80.378V84.9C256.194 85.2733 256.273 85.5393 256.432 85.698C256.59 85.8473 256.866 85.922 257.258 85.922H258.196V87H257.048C256.338 87 255.806 86.8367 255.452 86.51C255.097 86.1833 254.92 85.6467 254.92 84.9V80.378H253.926V79.328H254.92V77.396H256.194V79.328H258.196V80.378H256.194ZM267.131 80.07C266.86 79.5007 266.468 79.062 265.955 78.754C265.442 78.4367 264.844 78.278 264.163 78.278C263.482 78.278 262.866 78.4367 262.315 78.754C261.774 79.062 261.344 79.51 261.027 80.098C260.719 80.6767 260.565 81.3487 260.565 82.114C260.565 82.8793 260.719 83.5513 261.027 84.13C261.344 84.7087 261.774 85.1567 262.315 85.474C262.866 85.782 263.482 85.936 264.163 85.936C265.115 85.936 265.899 85.6513 266.515 85.082C267.131 84.5127 267.49 83.7427 267.593 82.772H263.701V81.736H268.951V82.716C268.876 83.5187 268.624 84.256 268.195 84.928C267.766 85.5907 267.201 86.118 266.501 86.51C265.801 86.8927 265.022 87.084 264.163 87.084C263.258 87.084 262.432 86.874 261.685 86.454C260.938 86.0247 260.346 85.432 259.907 84.676C259.478 83.92 259.263 83.066 259.263 82.114C259.263 81.162 259.478 80.308 259.907 79.552C260.346 78.7867 260.938 78.194 261.685 77.774C262.432 77.3447 263.258 77.13 264.163 77.13C265.199 77.13 266.114 77.3867 266.907 77.9C267.71 78.4133 268.293 79.1367 268.657 80.07H267.131ZM277.16 80.098C277.16 80.91 276.88 81.5867 276.32 82.128C275.769 82.66 274.924 82.926 273.786 82.926H271.91V87H270.636V77.242H273.786C274.887 77.242 275.722 77.508 276.292 78.04C276.87 78.572 277.16 79.258 277.16 80.098ZM273.786 81.876C274.495 81.876 275.018 81.722 275.354 81.414C275.69 81.106 275.858 80.6673 275.858 80.098C275.858 78.894 275.167 78.292 273.786 78.292H271.91V81.876H273.786ZM284.749 77.242V78.278H282.089V87H280.815V78.278H278.141V77.242H284.749ZM287.633 85.236L286.065 89.002H285.211L286.233 85.236H287.633ZM90.286 98.242L87.108 104.318V108H85.834V104.318L82.642 98.242H84.056L86.464 103.184L88.872 98.242H90.286ZM94.9758 108.126C94.2571 108.126 93.6038 107.963 93.0158 107.636C92.4371 107.309 91.9798 106.847 91.6438 106.25C91.3171 105.643 91.1538 104.943 91.1538 104.15C91.1538 103.366 91.3218 102.675 91.6578 102.078C92.0031 101.471 92.4698 101.009 93.0578 100.692C93.6458 100.365 94.3038 100.202 95.0318 100.202C95.7598 100.202 96.4178 100.365 97.0058 100.692C97.5938 101.009 98.0558 101.467 98.3918 102.064C98.7371 102.661 98.9098 103.357 98.9098 104.15C98.9098 104.943 98.7324 105.643 98.3778 106.25C98.0324 106.847 97.5611 107.309 96.9638 107.636C96.3664 107.963 95.7038 108.126 94.9758 108.126ZM94.9758 107.006C95.4331 107.006 95.8624 106.899 96.2638 106.684C96.6651 106.469 96.9871 106.147 97.2298 105.718C97.4818 105.289 97.6078 104.766 97.6078 104.15C97.6078 103.534 97.4864 103.011 97.2438 102.582C97.0011 102.153 96.6838 101.835 96.2918 101.63C95.8998 101.415 95.4751 101.308 95.0178 101.308C94.5511 101.308 94.1218 101.415 93.7298 101.63C93.3471 101.835 93.0391 102.153 92.8058 102.582C92.5724 103.011 92.4558 103.534 92.4558 104.15C92.4558 104.775 92.5678 105.303 92.7918 105.732C93.0251 106.161 93.3331 106.483 93.7158 106.698C94.0984 106.903 94.5184 107.006 94.9758 107.006ZM107.389 100.328V108H106.115V106.866C105.872 107.258 105.532 107.566 105.093 107.79C104.664 108.005 104.188 108.112 103.665 108.112C103.068 108.112 102.531 107.991 102.055 107.748C101.579 107.496 101.201 107.123 100.921 106.628C100.65 106.133 100.515 105.531 100.515 104.822V100.328H101.775V104.654C101.775 105.41 101.966 105.993 102.349 106.404C102.732 106.805 103.254 107.006 103.917 107.006C104.598 107.006 105.135 106.796 105.527 106.376C105.919 105.956 106.115 105.345 106.115 104.542V100.328H107.389ZM110.814 101.574C111.038 101.135 111.355 100.795 111.766 100.552C112.186 100.309 112.695 100.188 113.292 100.188V101.504H112.956C111.528 101.504 110.814 102.279 110.814 103.828V108H109.54V100.328H110.814V101.574ZM124.263 105.83H120.007L119.223 108H117.879L121.407 98.298H122.877L126.391 108H125.047L124.263 105.83ZM123.899 104.794L122.135 99.866L120.371 104.794H123.899ZM129.203 98.242V108H127.929V98.242H129.203ZM134.63 103.114C134.63 102.162 134.845 101.308 135.274 100.552C135.704 99.7867 136.287 99.1893 137.024 98.76C137.771 98.3307 138.597 98.116 139.502 98.116C140.566 98.116 141.495 98.3727 142.288 98.886C143.082 99.3993 143.66 100.127 144.024 101.07H142.498C142.228 100.482 141.836 100.029 141.322 99.712C140.818 99.3947 140.212 99.236 139.502 99.236C138.821 99.236 138.21 99.3947 137.668 99.712C137.127 100.029 136.702 100.482 136.394 101.07C136.086 101.649 135.932 102.33 135.932 103.114C135.932 103.889 136.086 104.57 136.394 105.158C136.702 105.737 137.127 106.185 137.668 106.502C138.21 106.819 138.821 106.978 139.502 106.978C140.212 106.978 140.818 106.824 141.322 106.516C141.836 106.199 142.228 105.746 142.498 105.158H144.024C143.66 106.091 143.082 106.815 142.288 107.328C141.495 107.832 140.566 108.084 139.502 108.084C138.597 108.084 137.771 107.874 137.024 107.454C136.287 107.025 135.704 106.432 135.274 105.676C134.845 104.92 134.63 104.066 134.63 103.114ZM149.267 108.126C148.548 108.126 147.895 107.963 147.307 107.636C146.728 107.309 146.271 106.847 145.935 106.25C145.608 105.643 145.445 104.943 145.445 104.15C145.445 103.366 145.613 102.675 145.949 102.078C146.294 101.471 146.761 101.009 147.349 100.692C147.937 100.365 148.595 100.202 149.323 100.202C150.051 100.202 150.709 100.365 151.297 100.692C151.885 101.009 152.347 101.467 152.683 102.064C153.028 102.661 153.201 103.357 153.201 104.15C153.201 104.943 153.023 105.643 152.669 106.25C152.323 106.847 151.852 107.309 151.255 107.636C150.657 107.963 149.995 108.126 149.267 108.126ZM149.267 107.006C149.724 107.006 150.153 106.899 150.555 106.684C150.956 106.469 151.278 106.147 151.521 105.718C151.773 105.289 151.899 104.766 151.899 104.15C151.899 103.534 151.777 103.011 151.535 102.582C151.292 102.153 150.975 101.835 150.583 101.63C150.191 101.415 149.766 101.308 149.309 101.308C148.842 101.308 148.413 101.415 148.021 101.63C147.638 101.835 147.33 102.153 147.097 102.582C146.863 103.011 146.747 103.534 146.747 104.15C146.747 104.775 146.859 105.303 147.083 105.732C147.316 106.161 147.624 106.483 148.007 106.698C148.389 106.903 148.809 107.006 149.267 107.006ZM164.102 100.188C164.699 100.188 165.231 100.314 165.698 100.566C166.165 100.809 166.533 101.177 166.804 101.672C167.075 102.167 167.21 102.769 167.21 103.478V108H165.95V103.66C165.95 102.895 165.759 102.311 165.376 101.91C165.003 101.499 164.494 101.294 163.85 101.294C163.187 101.294 162.66 101.509 162.268 101.938C161.876 102.358 161.68 102.969 161.68 103.772V108H160.42V103.66C160.42 102.895 160.229 102.311 159.846 101.91C159.473 101.499 158.964 101.294 158.32 101.294C157.657 101.294 157.13 101.509 156.738 101.938C156.346 102.358 156.15 102.969 156.15 103.772V108H154.876V100.328H156.15V101.434C156.402 101.033 156.738 100.725 157.158 100.51C157.587 100.295 158.059 100.188 158.572 100.188C159.216 100.188 159.785 100.333 160.28 100.622C160.775 100.911 161.143 101.336 161.386 101.896C161.601 101.355 161.955 100.935 162.45 100.636C162.945 100.337 163.495 100.188 164.102 100.188ZM170.574 101.742C170.826 101.303 171.199 100.939 171.694 100.65C172.198 100.351 172.781 100.202 173.444 100.202C174.125 100.202 174.741 100.365 175.292 100.692C175.852 101.019 176.29 101.481 176.608 102.078C176.925 102.666 177.084 103.352 177.084 104.136C177.084 104.911 176.925 105.601 176.608 106.208C176.29 106.815 175.852 107.286 175.292 107.622C174.741 107.958 174.125 108.126 173.444 108.126C172.79 108.126 172.212 107.981 171.708 107.692C171.213 107.393 170.835 107.025 170.574 106.586V111.64H169.3V100.328H170.574V101.742ZM175.782 104.136C175.782 103.557 175.665 103.053 175.432 102.624C175.198 102.195 174.881 101.868 174.48 101.644C174.088 101.42 173.654 101.308 173.178 101.308C172.711 101.308 172.277 101.425 171.876 101.658C171.484 101.882 171.166 102.213 170.924 102.652C170.69 103.081 170.574 103.581 170.574 104.15C170.574 104.729 170.69 105.237 170.924 105.676C171.166 106.105 171.484 106.437 171.876 106.67C172.277 106.894 172.711 107.006 173.178 107.006C173.654 107.006 174.088 106.894 174.48 106.67C174.881 106.437 175.198 106.105 175.432 105.676C175.665 105.237 175.782 104.724 175.782 104.136ZM178.285 104.136C178.285 103.352 178.443 102.666 178.761 102.078C179.078 101.481 179.512 101.019 180.063 100.692C180.623 100.365 181.243 100.202 181.925 100.202C182.597 100.202 183.18 100.347 183.675 100.636C184.169 100.925 184.538 101.289 184.781 101.728V100.328H186.069V108H184.781V106.572C184.529 107.02 184.151 107.393 183.647 107.692C183.152 107.981 182.573 108.126 181.911 108.126C181.229 108.126 180.613 107.958 180.063 107.622C179.512 107.286 179.078 106.815 178.761 106.208C178.443 105.601 178.285 104.911 178.285 104.136ZM184.781 104.15C184.781 103.571 184.664 103.067 184.431 102.638C184.197 102.209 183.88 101.882 183.479 101.658C183.087 101.425 182.653 101.308 182.177 101.308C181.701 101.308 181.267 101.42 180.875 101.644C180.483 101.868 180.17 102.195 179.937 102.624C179.703 103.053 179.587 103.557 179.587 104.136C179.587 104.724 179.703 105.237 179.937 105.676C180.17 106.105 180.483 106.437 180.875 106.67C181.267 106.894 181.701 107.006 182.177 107.006C182.653 107.006 183.087 106.894 183.479 106.67C183.88 106.437 184.197 106.105 184.431 105.676C184.664 105.237 184.781 104.729 184.781 104.15ZM191.96 100.188C192.893 100.188 193.649 100.473 194.228 101.042C194.806 101.602 195.096 102.414 195.096 103.478V108H193.836V103.66C193.836 102.895 193.644 102.311 193.262 101.91C192.879 101.499 192.356 101.294 191.694 101.294C191.022 101.294 190.485 101.504 190.084 101.924C189.692 102.344 189.496 102.955 189.496 103.758V108H188.222V100.328H189.496V101.42C189.748 101.028 190.088 100.725 190.518 100.51C190.956 100.295 191.437 100.188 191.96 100.188ZM197.835 99.082C197.592 99.082 197.387 98.998 197.219 98.83C197.051 98.662 196.967 98.4567 196.967 98.214C196.967 97.9713 197.051 97.766 197.219 97.598C197.387 97.43 197.592 97.346 197.835 97.346C198.068 97.346 198.264 97.43 198.423 97.598C198.591 97.766 198.675 97.9713 198.675 98.214C198.675 98.4567 198.591 98.662 198.423 98.83C198.264 98.998 198.068 99.082 197.835 99.082ZM198.451 100.328V108H197.177V100.328H198.451ZM203.968 108.126C203.249 108.126 202.596 107.963 202.008 107.636C201.429 107.309 200.972 106.847 200.636 106.25C200.309 105.643 200.146 104.943 200.146 104.15C200.146 103.366 200.314 102.675 200.65 102.078C200.995 101.471 201.462 101.009 202.05 100.692C202.638 100.365 203.296 100.202 204.024 100.202C204.752 100.202 205.41 100.365 205.998 100.692C206.586 101.009 207.048 101.467 207.384 102.064C207.729 102.661 207.902 103.357 207.902 104.15C207.902 104.943 207.725 105.643 207.37 106.25C207.025 106.847 206.553 107.309 205.956 107.636C205.359 107.963 204.696 108.126 203.968 108.126ZM203.968 107.006C204.425 107.006 204.855 106.899 205.256 106.684C205.657 106.469 205.979 106.147 206.222 105.718C206.474 105.289 206.6 104.766 206.6 104.15C206.6 103.534 206.479 103.011 206.236 102.582C205.993 102.153 205.676 101.835 205.284 101.63C204.892 101.415 204.467 101.308 204.01 101.308C203.543 101.308 203.114 101.415 202.722 101.63C202.339 101.835 202.031 102.153 201.798 102.582C201.565 103.011 201.448 103.534 201.448 104.15C201.448 104.775 201.56 105.303 201.784 105.732C202.017 106.161 202.325 106.483 202.708 106.698C203.091 106.903 203.511 107.006 203.968 107.006ZM213.315 100.188C214.248 100.188 215.004 100.473 215.583 101.042C216.162 101.602 216.451 102.414 216.451 103.478V108H215.191V103.66C215.191 102.895 215 102.311 214.617 101.91C214.234 101.499 213.712 101.294 213.049 101.294C212.377 101.294 211.84 101.504 211.439 101.924C211.047 102.344 210.851 102.955 210.851 103.758V108H209.577V100.328H210.851V101.42C211.103 101.028 211.444 100.725 211.873 100.51C212.312 100.295 212.792 100.188 213.315 100.188ZM220.184 98.242L220.03 105.242H218.966L218.812 98.242H220.184ZM219.554 108.084C219.311 108.084 219.106 108 218.938 107.832C218.77 107.664 218.686 107.459 218.686 107.216C218.686 106.973 218.77 106.768 218.938 106.6C219.106 106.432 219.311 106.348 219.554 106.348C219.787 106.348 219.983 106.432 220.142 106.6C220.31 106.768 220.394 106.973 220.394 107.216C220.394 107.459 220.31 107.664 220.142 107.832C219.983 108 219.787 108.084 219.554 108.084Z" fill="#6F747A"/>
</svg>
