<svg width="32" height="32" viewBox="0 0 32 32" fill="none" xmlns="http://www.w3.org/2000/svg">
<rect width="32" height="32" rx="8" fill="#A257D6"/>
<g clip-path="url(#clip0_31_22780)">
<path d="M11.6496 24.91C11.6196 24.91 11.5796 24.93 11.5496 24.93C9.60957 23.97 8.02957 22.38 7.05957 20.44C7.05957 20.41 7.07957 20.37 7.07957 20.34C8.29957 20.7 9.55957 20.97 10.8096 21.18C11.0296 22.44 11.2896 23.69 11.6496 24.91Z" fill="white"/>
<path d="M24.94 20.45C23.95 22.44 22.3 24.05 20.29 25.02C20.67 23.75 20.99 22.47 21.2 21.18C22.46 20.97 23.7 20.7 24.92 20.34C24.91 20.38 24.94 20.42 24.94 20.45Z" fill="white"/>
<path d="M25.02 11.71C23.76 11.33 22.49 11.02 21.2 10.8C20.99 9.50998 20.68 8.22998 20.29 6.97998C22.36 7.96998 24.03 9.63998 25.02 11.71Z" fill="white"/>
<path d="M11.6505 7.09C11.2905 8.31 11.0305 9.55 10.8205 10.81C9.53047 11.01 8.25047 11.33 6.98047 11.71C7.95047 9.7 9.56047 8.05 11.5505 7.06C11.5805 7.06 11.6205 7.09 11.6505 7.09Z" fill="white"/>
<path d="M19.4898 10.59C17.1698 10.33 14.8298 10.33 12.5098 10.59C12.7598 9.22 13.0798 7.85 13.5298 6.53C13.5498 6.45 13.5398 6.39 13.5498 6.31C14.3398 6.12 15.1498 6 15.9998 6C16.8398 6 17.6598 6.12 18.4398 6.31C18.4498 6.39 18.4498 6.45 18.4698 6.53C18.9198 7.86 19.2398 9.22 19.4898 10.59Z" fill="white"/>
<path d="M10.59 19.49C9.21 19.24 7.85 18.92 6.53 18.47C6.45 18.45 6.39 18.46 6.31 18.45C6.12 17.66 6 16.85 6 16C6 15.16 6.12 14.34 6.31 13.56C6.39 13.55 6.45 13.55 6.53 13.53C7.86 13.09 9.21 12.76 10.59 12.51C10.34 14.83 10.34 17.17 10.59 19.49Z" fill="white"/>
<path d="M26.0002 16C26.0002 16.85 25.8802 17.66 25.6902 18.45C25.6102 18.46 25.5502 18.45 25.4702 18.47C24.1402 18.91 22.7802 19.24 21.4102 19.49C21.6702 17.17 21.6702 14.83 21.4102 12.51C22.7802 12.76 24.1502 13.08 25.4702 13.53C25.5502 13.55 25.6102 13.56 25.6902 13.56C25.8802 14.35 26.0002 15.16 26.0002 16Z" fill="white"/>
<path d="M19.4898 21.41C19.2398 22.79 18.9198 24.15 18.4698 25.47C18.4498 25.55 18.4498 25.61 18.4398 25.69C17.6598 25.88 16.8398 26 15.9998 26C15.1498 26 14.3398 25.88 13.5498 25.69C13.5398 25.61 13.5498 25.55 13.5298 25.47C13.0898 24.14 12.7598 22.79 12.5098 21.41C13.6698 21.54 14.8298 21.63 15.9998 21.63C17.1698 21.63 18.3398 21.54 19.4898 21.41Z" fill="white"/>
<path d="M19.7633 19.7633C17.2622 20.0789 14.7378 20.0789 12.2367 19.7633C11.9211 17.2622 11.9211 14.7378 12.2367 12.2367C14.7378 11.9211 17.2622 11.9211 19.7633 12.2367C20.0789 14.7378 20.0789 17.2622 19.7633 19.7633Z" fill="white"/>
</g>
<defs>
<clipPath id="clip0_31_22780">
<rect width="24" height="24" fill="white" transform="translate(4 4)"/>
</clipPath>
</defs>
</svg>
