<svg width="32" height="32" viewBox="0 0 32 32" fill="none" xmlns="http://www.w3.org/2000/svg">
<rect width="32" height="32" rx="8" fill="#EA445A"/>
<path d="M11.8802 16.07C11.8802 15.66 12.2202 15.32 12.6302 15.32H18.1102V6.86C18.1002 6.38 17.7202 6 17.2402 6C11.3502 6 7.24023 10.11 7.24023 16C7.24023 21.89 11.3502 26 17.2402 26C17.7102 26 18.1002 25.62 18.1002 25.14V16.81H12.6302C12.2102 16.82 11.8802 16.48 11.8802 16.07Z" fill="white"/>
<path d="M24.5396 15.54L21.6996 12.69C21.4096 12.4 20.9296 12.4 20.6396 12.69C20.3496 12.98 20.3496 13.46 20.6396 13.75L22.1996 15.31H18.0996V16.81H22.1896L20.6296 18.37C20.3396 18.66 20.3396 19.14 20.6296 19.43C20.7796 19.58 20.9696 19.65 21.1596 19.65C21.3496 19.65 21.5396 19.58 21.6896 19.43L24.5296 16.58C24.8296 16.3 24.8296 15.83 24.5396 15.54Z" fill="white"/>
</svg>
