<svg width="28" height="29" viewBox="0 0 28 29" fill="none" xmlns="http://www.w3.org/2000/svg">
<path opacity="0.25" d="M4.66699 14.0581C4.66699 9.65835 4.66699 7.45846 6.03383 6.09163C7.40066 4.72479 9.60055 4.72479 14.0003 4.72479C18.4001 4.72479 20.6 4.72479 21.9668 6.09163C23.3337 7.45846 23.3337 9.65835 23.3337 14.0581C23.3337 18.4579 23.3337 20.6578 21.9668 22.0246C20.6 23.3915 18.4001 23.3915 14.0003 23.3915C9.60055 23.3915 7.40066 23.3915 6.03383 22.0246C4.66699 20.6578 4.66699 18.4579 4.66699 14.0581Z" fill="#6F747A"/>
<path d="M6.03387 22.0246C7.40074 23.3915 9.60069 23.3915 14.0006 23.3915C18.4005 23.3915 20.6004 23.3915 21.9673 22.0246C23.2339 20.7581 23.3268 18.7762 23.3337 14.9915H20.3845C19.5397 14.9915 19.1173 14.9915 18.7459 15.1622C18.3746 15.333 18.0997 15.6537 17.5499 16.2952L17.5499 16.2952L16.9848 16.9544L16.9848 16.9544C16.435 17.5959 16.1601 17.9166 15.7888 18.0873C15.4175 18.2581 14.995 18.2581 14.1502 18.2581H13.851C13.0062 18.2581 12.5837 18.2581 12.2124 18.0873C11.8411 17.9166 11.5662 17.5959 11.0164 16.9544L11.0164 16.9544L10.4513 16.2952C9.90147 15.6537 9.62656 15.333 9.25525 15.1622C8.88393 14.9915 8.4615 14.9915 7.61665 14.9915H4.66699C4.67381 18.7762 4.76727 20.7581 6.03387 22.0246Z" fill="#6F747A"/>
<path d="M10.2664 8.69147C9.87981 8.69147 9.56641 9.00487 9.56641 9.39147C9.56641 9.77807 9.87981 10.0915 10.2664 10.0915H17.7331C18.1197 10.0915 18.4331 9.77807 18.4331 9.39147C18.4331 9.00487 18.1197 8.69147 17.7331 8.69147H10.2664Z" fill="#6F747A"/>
<path d="M12.1331 11.9581C11.7465 11.9581 11.4331 12.2715 11.4331 12.6581C11.4331 13.0447 11.7465 13.3581 12.1331 13.3581H15.8664C16.253 13.3581 16.5664 13.0447 16.5664 12.6581C16.5664 12.2715 16.253 11.9581 15.8664 11.9581H12.1331Z" fill="#6F747A"/>
</svg>
