<svg width="32" height="32" viewBox="0 0 32 32" fill="none" xmlns="http://www.w3.org/2000/svg">
<rect width="32" height="32" rx="8" fill="#EA4E3D"/>
<path d="M24.1902 18.06L23.0602 16.18C22.8102 15.77 22.5902 14.98 22.5902 14.5V12.63C22.5902 8.99999 19.6402 6.04999 16.0202 6.04999C12.3902 6.05999 9.4402 8.99999 9.4402 12.63V14.49C9.4402 14.97 9.2202 15.76 8.9802 16.17L7.8502 18.05C7.4202 18.78 7.3202 19.61 7.5902 20.33C7.8602 21.06 8.4702 21.64 9.2702 21.9C10.3502 22.26 11.4402 22.52 12.5502 22.71C12.6602 22.73 12.7702 22.74 12.8802 22.76C13.0202 22.78 13.1702 22.8 13.3202 22.82C13.5802 22.86 13.8402 22.89 14.1102 22.91C14.7402 22.97 15.3802 23 16.0202 23C16.6502 23 17.2802 22.97 17.9002 22.91C18.1302 22.89 18.3602 22.87 18.5802 22.84C18.7602 22.82 18.9402 22.8 19.1202 22.77C19.2302 22.76 19.3402 22.74 19.4502 22.72C20.5702 22.54 21.6802 22.26 22.7602 21.9C23.5302 21.64 24.1202 21.06 24.4002 20.32C24.6802 19.57 24.6002 18.75 24.1902 18.06ZM16.7502 14C16.7502 14.42 16.4102 14.76 15.9902 14.76C15.5702 14.76 15.2302 14.42 15.2302 14V10.9C15.2302 10.48 15.5702 10.14 15.9902 10.14C16.4102 10.14 16.7502 10.48 16.7502 10.9V14Z" fill="white"/>
<path d="M18.8297 24.01C18.4097 25.17 17.2997 26 15.9997 26C15.2097 26 14.4297 25.68 13.8797 25.11C13.5597 24.81 13.3197 24.41 13.1797 24C13.3097 24.02 13.4397 24.03 13.5797 24.05C13.8097 24.08 14.0497 24.11 14.2897 24.13C14.8597 24.18 15.4397 24.21 16.0197 24.21C16.5897 24.21 17.1597 24.18 17.7197 24.13C17.9297 24.11 18.1397 24.1 18.3397 24.07C18.4997 24.05 18.6597 24.03 18.8297 24.01Z" fill="white"/>
</svg>
