<svg width="32" height="32" viewBox="0 0 32 32" fill="none" xmlns="http://www.w3.org/2000/svg">
<rect width="32" height="32" rx="8" fill="#8E8E93"/>
<path d="M16.0001 21.35C16.9003 21.35 17.6301 20.6202 17.6301 19.72C17.6301 18.8198 16.9003 18.09 16.0001 18.09C15.0999 18.09 14.3701 18.8198 14.3701 19.72C14.3701 20.6202 15.0999 21.35 16.0001 21.35Z" fill="white"/>
<path d="M22.28 13.53V12.28C22.28 9.58 21.63 6 16 6C10.37 6 9.72 9.58 9.72 12.28V13.53C6.92 13.88 6 15.3 6 18.79V20.65C6 24.75 7.25 26 11.35 26H20.65C24.75 26 26 24.75 26 20.65V18.79C26 15.3 25.08 13.88 22.28 13.53ZM16 22.74C14.33 22.74 12.98 21.38 12.98 19.72C12.98 18.05 14.34 16.7 16 16.7C17.66 16.7 19.02 18.06 19.02 19.72C19.02 21.39 17.67 22.74 16 22.74ZM11.35 13.44C11.27 13.44 11.2 13.44 11.12 13.44V12.28C11.12 9.35 11.95 7.4 16 7.4C20.05 7.4 20.88 9.35 20.88 12.28V13.45C20.8 13.45 20.73 13.45 20.65 13.45H11.35V13.44Z" fill="white"/>
</svg>
