<svg width="231" height="274" viewBox="0 0 231 274" fill="none" xmlns="http://www.w3.org/2000/svg">
<g clip-path="url(#clip0_8_777)">
<path d="M173.897 180.878C207.219 125.24 208.087 64.5012 175.835 45.2129C143.583 25.9246 90.4249 55.3914 57.1023 111.029C23.7798 166.666 22.9118 227.405 55.1636 246.694C87.4155 265.982 140.574 236.515 173.897 180.878Z" stroke="url(#paint0_linear_8_777)" stroke-miterlimit="10"/>
<path d="M175.829 246.719C208.081 227.43 207.213 166.691 173.89 111.054C140.568 55.4165 87.409 25.9497 55.1571 45.238C22.9052 64.5262 23.7732 125.265 57.0958 180.903C90.4184 236.54 143.577 266.007 175.829 246.719Z" stroke="url(#paint1_linear_8_777)" stroke-miterlimit="10"/>
<path d="M47.0904 78.9789C-4.05492 93.3524 -14.9046 135.104 22.8568 172.064C60.6182 209.025 132.751 227.361 183.896 212.961C235.041 198.56 245.932 156.904 208.129 119.875C170.327 82.8461 98.2358 64.5712 47.0904 78.9789Z" stroke="url(#paint2_linear_8_777)" stroke-miterlimit="10"/>
<g filter="url(#filter0_d_8_777)">
<path d="M114.599 197.868C130.994 197.868 144.285 166.958 144.285 128.828C144.285 90.6975 130.994 59.7869 114.599 59.7869C98.2043 59.7869 84.9135 90.6975 84.9135 128.828C84.9135 166.958 98.2043 197.868 114.599 197.868Z" fill="#21AF85"/>
</g>
<path d="M105.051 225.014H112.75C113.176 224.971 113.602 225.097 113.936 225.365C114.27 225.632 114.486 226.02 114.538 226.444V234.863C114.538 236.745 111.757 237.751 110.01 236.499C106.674 234.149 104.292 230.681 103.298 226.725C103.072 225.869 103.921 225.014 105.051 225.014Z" fill="url(#paint3_radial_8_777)"/>
<path d="M114.305 221.16V214.377C114.305 211.523 111.394 209.463 108.202 210.058L103.907 210.852C100.715 211.448 98.7838 214.405 99.8591 217.054L102.421 223.364C104.715 228.99 114.298 227.238 114.305 221.16Z" fill="url(#paint4_radial_8_777)"/>
<path d="M113.784 206.821V197.122C113.784 193.057 109.627 190.107 105.072 190.962L98.907 192.105C94.3521 192.947 91.5918 197.177 93.1261 200.962L96.7837 209.969C100.078 218.005 113.777 215.466 113.784 206.821Z" fill="url(#paint5_radial_8_777)"/>
<path d="M96.2563 208.594L96.818 209.963C100.078 217.998 113.777 215.438 113.784 206.814V205.849C109.325 210.469 102.578 211.359 96.2563 208.594Z" fill="url(#paint6_radial_8_777)"/>
<g filter="url(#filter1_d_8_777)">
<path d="M97.8728 215.267C97.5029 213.31 98.3933 211.51 99.8591 211.243C101.325 210.976 102.811 212.358 103.181 214.323C103.551 216.287 102.654 218.08 101.188 218.34C99.7221 218.6 98.2358 217.225 97.8728 215.267Z" fill="url(#paint7_radial_8_777)"/>
</g>
<path d="M124.99 225.014H117.284C116.859 224.971 116.434 225.097 116.101 225.365C115.768 225.633 115.553 226.02 115.503 226.444V234.863C115.503 236.745 118.284 237.751 120.031 236.499C123.367 234.149 125.749 230.681 126.743 226.725C126.963 225.869 126.12 225.014 124.99 225.014Z" fill="url(#paint8_radial_8_777)"/>
<path d="M115.757 221.16V214.377C115.757 211.523 118.668 209.463 121.853 210.058L126.154 210.852C129.339 211.448 131.271 214.405 130.196 217.054L127.634 223.364C125.346 228.99 115.757 227.238 115.757 221.16Z" fill="url(#paint9_radial_8_777)"/>
<path d="M116.257 206.821V197.122C116.257 193.057 120.408 190.107 124.963 190.962L131.127 192.105C135.682 192.947 138.442 197.177 136.908 200.962L133.244 209.969C129.956 218.005 116.257 215.466 116.257 206.821Z" fill="url(#paint10_radial_8_777)"/>
<path d="M133.778 208.594L133.216 209.963C129.956 217.998 116.257 215.438 116.257 206.814V205.849C120.709 210.469 127.463 211.359 133.778 208.594Z" fill="url(#paint11_radial_8_777)"/>
<g filter="url(#filter2_d_8_777)">
<path d="M132.196 215.267C132.559 213.31 131.668 211.51 130.202 211.243C128.737 210.976 127.25 212.358 126.887 214.323C126.524 216.287 127.408 218.08 128.874 218.34C130.339 218.6 131.798 217.225 132.196 215.267Z" fill="url(#paint12_radial_8_777)"/>
</g>
<path d="M40.2615 135.234L50.1042 132.4C51.0714 132.122 52.0876 132.058 53.0821 132.212C54.0766 132.366 55.0257 132.735 55.8632 133.293C56.7008 133.85 57.4068 134.583 57.9323 135.441C58.4577 136.299 58.7899 137.26 58.9059 138.259L59.5497 144.016C59.6599 145.018 59.55 146.033 59.2276 146.989C58.9052 147.945 58.3782 148.82 57.6831 149.551C56.9881 150.283 56.1417 150.854 55.2031 151.226C54.2644 151.597 53.256 151.76 52.2481 151.702L42.0286 151.1C32.9256 150.58 31.5078 137.76 40.2615 135.234Z" fill="url(#paint13_radial_8_777)"/>
<path d="M61.5635 129.361L75.6187 125.31C77.005 124.911 78.4616 124.82 79.8868 125.042C81.312 125.265 82.6715 125.795 83.8703 126.597C85.0692 127.398 86.0784 128.452 86.8276 129.684C87.5768 130.915 88.048 132.296 88.2081 133.728L89.1259 141.942C89.2817 143.372 89.1236 144.819 88.6624 146.182C88.2013 147.545 87.4483 148.792 86.4559 149.834C85.4635 150.877 84.2555 151.69 82.9162 152.219C81.5769 152.747 80.1384 152.977 78.701 152.893L64.0978 152.037C51.0837 151.298 49.0357 132.969 61.5635 129.361Z" fill="url(#paint14_radial_8_777)"/>
<path d="M61.5635 129.361L75.6187 125.31C77.005 124.911 78.4616 124.82 79.8868 125.042C81.312 125.265 82.6715 125.795 83.8703 126.597C85.0692 127.398 86.0784 128.452 86.8276 129.684C87.5768 130.915 88.048 132.296 88.2081 133.728L89.1259 141.942C89.2817 143.372 89.1236 144.819 88.6624 146.182C88.2013 147.545 87.4483 148.792 86.4559 149.834C85.4635 150.877 84.2555 151.69 82.9162 152.219C81.5769 152.747 80.1384 152.977 78.701 152.893L64.0978 152.037C51.0837 151.298 49.0357 132.969 61.5635 129.361Z" fill="url(#paint15_radial_8_777)"/>
<path d="M189.656 135.234L179.82 132.4C178.851 132.12 177.831 132.055 176.834 132.209C175.836 132.364 174.884 132.734 174.045 133.295C173.206 133.856 172.5 134.593 171.976 135.456C171.452 136.318 171.123 137.284 171.012 138.287L170.368 144.043C170.257 145.046 170.366 146.061 170.688 147.018C171.01 147.974 171.537 148.849 172.232 149.581C172.927 150.313 173.774 150.885 174.713 151.256C175.652 151.627 176.661 151.788 177.67 151.729L187.882 151.127C196.999 150.58 198.431 137.76 189.656 135.234Z" fill="url(#paint16_radial_8_777)"/>
<path d="M168.354 129.361L154.306 125.31C152.92 124.911 151.463 124.82 150.038 125.042C148.613 125.265 147.253 125.795 146.054 126.597C144.855 127.398 143.846 128.452 143.097 129.684C142.348 130.915 141.877 132.296 141.717 133.728L140.799 141.942C140.643 143.372 140.801 144.819 141.262 146.182C141.723 147.545 142.476 148.792 143.469 149.834C144.461 150.877 145.669 151.69 147.008 152.219C148.348 152.747 149.786 152.977 151.224 152.893L165.827 152.037C178.841 151.298 180.889 132.969 168.354 129.361Z" fill="url(#paint17_radial_8_777)"/>
<path d="M85.8176 177.472L79.5503 140.942C78.9329 137.339 79.1105 133.644 80.0707 130.117C81.0309 126.589 82.7505 123.313 85.1094 120.519C87.4682 117.724 90.4094 115.478 93.7272 113.938C97.0451 112.397 100.66 111.599 104.318 111.6H125.346C129.005 111.599 132.619 112.397 135.936 113.938C139.254 115.478 142.195 117.724 144.553 120.519C146.912 123.314 148.63 126.589 149.59 130.117C150.549 133.645 150.726 137.339 150.107 140.942L143.84 177.472C138.223 210.052 91.4 210.052 85.8176 177.472Z" fill="url(#paint18_radial_8_777)"/>
<path style="mix-blend-mode:multiply" d="M125.346 111.6H115.113V160.997C119.478 161.062 123.642 162.842 126.704 165.952C129.765 169.063 131.477 173.253 131.47 177.615C131.47 186.725 124.161 193.166 115.113 193.283V201.913C128.127 201.79 141.038 193.652 143.806 177.485L150.073 140.956C150.693 137.355 150.519 133.662 149.563 130.135C148.606 126.608 146.891 123.332 144.536 120.536C142.181 117.741 139.244 115.493 135.929 113.949C132.615 112.406 129.003 111.604 125.346 111.6Z" fill="url(#paint19_linear_8_777)"/>
<g filter="url(#filter3_i_8_777)">
<path d="M115.089 192.784C123.261 192.784 129.886 186.173 129.886 178.018C129.886 169.863 123.261 163.251 115.089 163.251C106.917 163.251 100.292 169.863 100.292 178.018C100.292 186.173 106.917 192.784 115.089 192.784Z" fill="#EEEEED"/>
</g>
<g filter="url(#filter4_d_8_777)">
<path d="M115.166 161.005C118.541 160.991 121.844 161.977 124.657 163.838C127.47 165.699 129.666 168.351 130.967 171.459C132.268 174.566 132.616 177.989 131.966 181.294C131.316 184.599 129.698 187.637 127.316 190.023C124.935 192.41 121.897 194.037 118.588 194.699C115.279 195.361 111.848 195.028 108.729 193.743C105.609 192.457 102.943 190.277 101.066 187.477C99.1897 184.678 98.188 181.386 98.188 178.018C98.1834 175.789 98.6189 173.58 99.4696 171.518C100.32 169.457 101.57 167.582 103.146 166.003C104.723 164.423 106.596 163.168 108.658 162.311C110.721 161.453 112.932 161.01 115.166 161.005ZM115.166 158.329C111.261 158.314 107.439 159.456 104.184 161.61C100.929 163.764 98.3886 166.834 96.8835 170.43C95.3784 174.026 94.9766 177.987 95.7292 181.812C96.4817 185.636 98.3546 189.151 101.111 191.913C103.867 194.674 107.382 196.557 111.211 197.323C115.041 198.089 119.012 197.703 122.621 196.215C126.231 194.727 129.317 192.204 131.488 188.964C133.659 185.725 134.818 181.915 134.819 178.018C134.822 172.809 132.755 167.81 129.071 164.119C125.387 160.428 120.387 158.346 115.166 158.329Z" fill="url(#paint20_radial_8_777)"/>
</g>
<path d="M64.0567 152.065H64.0978L74.3241 152.667C65.365 147.513 62.9402 133.797 71.7556 126.425L63.2074 128.889C56.5976 135.522 57.8099 146.233 64.0567 152.065Z" fill="url(#paint21_radial_8_777)"/>
<path d="M165.073 152.065H165.025L154.806 152.667C163.758 147.513 166.183 133.797 157.375 126.425L165.916 128.889C172.512 135.522 171.293 146.233 165.073 152.065Z" fill="url(#paint22_radial_8_777)"/>
<g filter="url(#filter5_d_8_777)">
<path d="M52.2344 128.999C55.9332 128.28 59.3511 129.889 59.8785 132.585C60.4059 135.282 57.8236 138.061 54.1181 138.745C50.4125 139.43 47.0014 137.856 46.474 135.159C45.9466 132.462 48.5288 129.711 52.2344 128.999Z" fill="url(#paint23_radial_8_777)"/>
</g>
<g filter="url(#filter6_d_8_777)">
<path d="M177.69 128.999C173.991 128.28 170.567 129.889 170.046 132.585C169.526 135.282 172.101 138.061 175.8 138.745C179.498 139.43 182.923 137.856 183.444 135.159C183.964 132.462 181.389 129.711 177.69 128.999Z" fill="url(#paint24_radial_8_777)"/>
</g>
<path d="M115.099 135.015C139.367 135.015 159.039 116.718 159.039 94.1464C159.039 71.5753 139.367 53.2778 115.099 53.2778C90.8321 53.2778 71.1597 71.5753 71.1597 94.1464C71.1597 116.718 90.8321 135.015 115.099 135.015Z" fill="url(#paint25_radial_8_777)"/>
<path style="mix-blend-mode:multiply" d="M115.503 79.6018C126.194 79.6018 134.86 73.709 134.86 66.4398C134.86 59.1706 126.194 53.2778 115.503 53.2778C104.813 53.2778 96.1467 59.1706 96.1467 66.4398C96.1467 73.709 104.813 79.6018 115.503 79.6018Z" fill="url(#paint26_radial_8_777)"/>
<path d="M159.039 101.046C150.573 137.137 79.6462 137.137 71.1802 101.046H159.039Z" fill="url(#paint27_radial_8_777)"/>
<path d="M158.779 89.7454C149.087 100.478 133.148 107.493 115.099 107.493C97.0508 107.493 81.1052 100.478 71.4131 89.7454C71.283 90.8884 71.2076 92.052 71.1802 93.2224C71.2282 95.2758 71.3377 97.9451 71.4953 99.1566C81.2011 109.82 97.1125 116.774 115.099 116.774C133.086 116.774 148.991 109.82 158.696 99.1566C158.854 97.9451 158.964 95.2415 159.012 93.2224C158.984 92.052 158.909 90.8884 158.779 89.7454Z" fill="url(#paint28_radial_8_777)"/>
<path d="M158.779 89.7454C149.087 100.478 133.148 107.493 115.099 107.493C97.0508 107.493 81.1052 100.478 71.4131 89.7454C71.283 90.8884 71.2076 92.052 71.1802 93.2224C71.2282 95.2758 71.3377 97.9451 71.4953 99.1566C81.2011 109.82 97.1125 116.774 115.099 116.774C133.086 116.774 148.991 109.82 158.696 99.1566C158.854 97.9451 158.964 95.2415 159.012 93.2224C158.984 92.052 158.909 90.8884 158.779 89.7454Z" fill="url(#paint29_radial_8_777)"/>
<g filter="url(#filter7_d_8_777)">
<path d="M91.4342 108.965C91.4342 108.444 91.5889 107.934 91.8787 107.501C92.1684 107.067 92.5803 106.73 93.0621 106.53C93.544 106.331 94.0742 106.279 94.5858 106.38C95.0973 106.482 95.5672 106.733 95.936 107.101C96.3048 107.47 96.5559 107.94 96.6577 108.451C96.7594 108.962 96.7072 109.492 96.5076 109.973C96.308 110.455 95.97 110.866 95.5364 111.156C95.1027 111.445 94.5929 111.6 94.0713 111.6C93.3719 111.6 92.7012 111.322 92.2066 110.828C91.7121 110.334 91.4342 109.664 91.4342 108.965Z" fill="white"/>
</g>
<g filter="url(#filter8_d_8_777)">
<path d="M134.299 108.965C134.299 108.443 134.453 107.934 134.743 107.5C135.033 107.067 135.446 106.729 135.928 106.53C136.41 106.33 136.941 106.279 137.453 106.381C137.964 106.483 138.434 106.735 138.803 107.104C139.171 107.473 139.422 107.943 139.523 108.455C139.624 108.967 139.571 109.497 139.37 109.978C139.169 110.459 138.83 110.87 138.396 111.159C137.961 111.448 137.451 111.601 136.929 111.6C136.583 111.6 136.24 111.532 135.921 111.399C135.601 111.267 135.311 111.073 135.066 110.828C134.822 110.583 134.629 110.292 134.497 109.973C134.365 109.653 134.298 109.311 134.299 108.965Z" fill="white"/>
</g>
<path d="M112.188 107.459C114.051 107.527 115.914 107.534 117.777 107.459C133.531 106.85 147.484 100.895 156.765 91.8604C157.395 91.2375 158.395 90.2108 158.779 89.807C158.424 86.7495 157.702 83.7458 156.628 80.8612H73.5638C72.4811 83.7433 71.7587 86.748 71.4131 89.807C72.1665 90.6831 72.8652 91.3402 73.5638 92.0246C82.8038 100.881 96.5782 106.775 112.188 107.459Z" fill="url(#paint30_radial_8_777)"/>
<path d="M159.039 94.1464C159.039 116.733 139.367 135.015 115.099 135.015C90.8315 135.015 71.1597 116.72 71.1597 94.1464" fill="url(#paint31_linear_8_777)"/>
<g filter="url(#filter9_iii_8_777)">
<g filter="url(#filter10_i_8_777)">
<path d="M114.709 176.551C114.833 176.002 114.509 175.452 113.987 175.322C113.464 175.193 112.941 175.533 112.818 176.082C112.694 176.631 113.018 177.181 113.54 177.311C114.063 177.441 114.586 177.101 114.709 176.551Z" fill="white"/>
</g>
<path d="M114.013 176.317C114.175 176.317 114.307 176.179 114.307 176.008C114.307 175.838 114.175 175.699 114.013 175.699C113.851 175.699 113.719 175.838 113.719 176.008C113.719 176.179 113.851 176.317 114.013 176.317Z" fill="white"/>
<g filter="url(#filter11_i_8_777)">
<path d="M118.745 177.04C119.125 176.641 119.125 175.994 118.745 175.595C118.366 175.196 117.75 175.196 117.371 175.595C116.991 175.994 116.991 176.641 117.371 177.04C117.75 177.439 118.366 177.439 118.745 177.04Z" fill="white"/>
</g>
<g filter="url(#filter12_i_8_777)">
<path d="M115.911 179.116C115.43 179.113 114.966 178.924 114.608 178.585C114.566 178.544 114.54 178.487 114.537 178.427C114.535 178.366 114.555 178.307 114.594 178.262C114.633 178.217 114.687 178.19 114.745 178.187C114.802 178.184 114.859 178.206 114.901 178.247C115.179 178.509 115.538 178.655 115.911 178.657H115.921C116.291 178.652 116.646 178.506 116.921 178.247C116.964 178.206 117.02 178.184 117.078 178.187C117.135 178.19 117.189 178.217 117.228 178.262C117.267 178.307 117.287 178.366 117.285 178.427C117.282 178.487 117.256 178.544 117.214 178.585C116.859 178.921 116.401 179.109 115.924 179.116H115.911Z" fill="white"/>
</g>
<path d="M117.81 176.317C117.972 176.317 118.103 176.179 118.103 176.008C118.103 175.838 117.972 175.699 117.81 175.699C117.647 175.699 117.516 175.838 117.516 176.008C117.516 176.179 117.647 176.317 117.81 176.317Z" fill="white"/>
<path d="M127.42 177.147C127.419 172.19 122.267 168.174 115.912 168.174C109.557 168.174 104.402 172.19 104.402 177.147C104.402 181.039 107.587 184.354 112.038 185.594V185.43C112.033 184.892 112.129 184.358 112.321 183.859C112.513 183.36 112.798 182.906 113.158 182.523C113.518 182.14 113.947 181.837 114.419 181.629C114.892 181.422 115.399 181.315 115.911 181.315C116.423 181.315 116.93 181.422 117.403 181.629C117.875 181.837 118.304 182.14 118.664 182.523C119.024 182.906 119.309 183.36 119.501 183.859C119.693 184.358 119.789 184.892 119.784 185.43V185.594V189.503C119.784 189.503 127.418 184.075 127.42 177.147ZM117.9 180.554H113.922C113.141 180.554 112.391 180.228 111.839 179.647C111.286 179.066 110.976 178.278 110.976 177.457V176.429C110.976 175.607 111.286 174.819 111.839 174.238C112.391 173.657 113.141 173.331 113.922 173.331H115.681V172.022C115.508 171.964 115.36 171.843 115.264 171.681C115.168 171.518 115.13 171.325 115.158 171.136C115.186 170.947 115.277 170.774 115.415 170.65C115.553 170.525 115.729 170.457 115.911 170.457C116.093 170.457 116.269 170.525 116.407 170.65C116.545 170.774 116.636 170.947 116.664 171.136C116.692 171.325 116.655 171.518 116.559 171.681C116.463 171.843 116.314 171.964 116.141 172.022V173.33H117.9C118.681 173.33 119.431 173.656 119.983 174.237C120.536 174.818 120.846 175.606 120.846 176.428V177.457C120.846 177.863 120.77 178.266 120.622 178.642C120.474 179.018 120.257 179.359 119.983 179.647C119.71 179.935 119.385 180.163 119.028 180.318C118.67 180.474 118.287 180.554 117.9 180.554Z" fill="#21AF85"/>
</g>
</g>
<defs>
<filter id="filter0_d_8_777" x="50.9135" y="25.7869" width="127.372" height="206.081" filterUnits="userSpaceOnUse" color-interpolation-filters="sRGB">
<feFlood flood-opacity="0" result="BackgroundImageFix"/>
<feColorMatrix in="SourceAlpha" type="matrix" values="0 0 0 0 0 0 0 0 0 0 0 0 0 0 0 0 0 0 127 0" result="hardAlpha"/>
<feOffset/>
<feGaussianBlur stdDeviation="17"/>
<feColorMatrix type="matrix" values="0 0 0 0 0.462396 0 0 0 0 0.887604 0 0 0 0 0.761838 0 0 0 1 0"/>
<feBlend mode="normal" in2="BackgroundImageFix" result="effect1_dropShadow_8_777"/>
<feBlend mode="normal" in="SourceGraphic" in2="effect1_dropShadow_8_777" result="shape"/>
</filter>
<filter id="filter1_d_8_777" x="91.7891" y="207.21" width="17.4754" height="19.1623" filterUnits="userSpaceOnUse" color-interpolation-filters="sRGB">
<feFlood flood-opacity="0" result="BackgroundImageFix"/>
<feColorMatrix in="SourceAlpha" type="matrix" values="0 0 0 0 0 0 0 0 0 0 0 0 0 0 0 0 0 0 127 0" result="hardAlpha"/>
<feOffset dy="2"/>
<feGaussianBlur stdDeviation="3"/>
<feColorMatrix type="matrix" values="0 0 0 0 0 0 0 0 0 0 0 0 0 0 0 0 0 0 0.25 0"/>
<feBlend mode="normal" in2="BackgroundImageFix" result="effect1_dropShadow_8_777"/>
<feBlend mode="normal" in="SourceGraphic" in2="effect1_dropShadow_8_777" result="shape"/>
</filter>
<filter id="filter2_d_8_777" x="120.806" y="207.21" width="17.4709" height="19.1623" filterUnits="userSpaceOnUse" color-interpolation-filters="sRGB">
<feFlood flood-opacity="0" result="BackgroundImageFix"/>
<feColorMatrix in="SourceAlpha" type="matrix" values="0 0 0 0 0 0 0 0 0 0 0 0 0 0 0 0 0 0 127 0" result="hardAlpha"/>
<feOffset dy="2"/>
<feGaussianBlur stdDeviation="3"/>
<feColorMatrix type="matrix" values="0 0 0 0 0 0 0 0 0 0 0 0 0 0 0 0 0 0 0.25 0"/>
<feBlend mode="normal" in2="BackgroundImageFix" result="effect1_dropShadow_8_777"/>
<feBlend mode="normal" in="SourceGraphic" in2="effect1_dropShadow_8_777" result="shape"/>
</filter>
<filter id="filter3_i_8_777" x="100.292" y="163.251" width="29.5943" height="29.533" filterUnits="userSpaceOnUse" color-interpolation-filters="sRGB">
<feFlood flood-opacity="0" result="BackgroundImageFix"/>
<feBlend mode="normal" in="SourceGraphic" in2="BackgroundImageFix" result="shape"/>
<feColorMatrix in="SourceAlpha" type="matrix" values="0 0 0 0 0 0 0 0 0 0 0 0 0 0 0 0 0 0 127 0" result="hardAlpha"/>
<feOffset/>
<feGaussianBlur stdDeviation="5"/>
<feComposite in2="hardAlpha" operator="arithmetic" k2="-1" k3="1"/>
<feColorMatrix type="matrix" values="0 0 0 0 0.0784314 0 0 0 0 0.698039 0 0 0 0 0.545098 0 0 0 0.5 0"/>
<feBlend mode="normal" in2="shape" result="effect1_innerShadow_8_777"/>
</filter>
<filter id="filter4_d_8_777" x="89.3594" y="152.329" width="51.4591" height="51.3773" filterUnits="userSpaceOnUse" color-interpolation-filters="sRGB">
<feFlood flood-opacity="0" result="BackgroundImageFix"/>
<feColorMatrix in="SourceAlpha" type="matrix" values="0 0 0 0 0 0 0 0 0 0 0 0 0 0 0 0 0 0 127 0" result="hardAlpha"/>
<feOffset/>
<feGaussianBlur stdDeviation="3"/>
<feColorMatrix type="matrix" values="0 0 0 0 1 0 0 0 0 1 0 0 0 0 1 0 0 0 1 0"/>
<feBlend mode="normal" in2="BackgroundImageFix" result="effect1_dropShadow_8_777"/>
<feBlend mode="normal" in="SourceGraphic" in2="effect1_dropShadow_8_777" result="shape"/>
</filter>
<filter id="filter5_d_8_777" x="40.4056" y="125.827" width="25.5412" height="22.0777" filterUnits="userSpaceOnUse" color-interpolation-filters="sRGB">
<feFlood flood-opacity="0" result="BackgroundImageFix"/>
<feColorMatrix in="SourceAlpha" type="matrix" values="0 0 0 0 0 0 0 0 0 0 0 0 0 0 0 0 0 0 127 0" result="hardAlpha"/>
<feOffset dy="3"/>
<feGaussianBlur stdDeviation="3"/>
<feColorMatrix type="matrix" values="0 0 0 0 0 0 0 0 0 0 0 0 0 0 0 0 0 0 0.25 0"/>
<feBlend mode="normal" in2="BackgroundImageFix" result="effect1_dropShadow_8_777"/>
<feBlend mode="normal" in="SourceGraphic" in2="effect1_dropShadow_8_777" result="shape"/>
</filter>
<filter id="filter6_d_8_777" x="163.979" y="125.827" width="25.5314" height="22.0777" filterUnits="userSpaceOnUse" color-interpolation-filters="sRGB">
<feFlood flood-opacity="0" result="BackgroundImageFix"/>
<feColorMatrix in="SourceAlpha" type="matrix" values="0 0 0 0 0 0 0 0 0 0 0 0 0 0 0 0 0 0 127 0" result="hardAlpha"/>
<feOffset dy="3"/>
<feGaussianBlur stdDeviation="3"/>
<feColorMatrix type="matrix" values="0 0 0 0 0 0 0 0 0 0 0 0 0 0 0 0 0 0 0.25 0"/>
<feBlend mode="normal" in2="BackgroundImageFix" result="effect1_dropShadow_8_777"/>
<feBlend mode="normal" in="SourceGraphic" in2="effect1_dropShadow_8_777" result="shape"/>
</filter>
<filter id="filter7_d_8_777" x="87.4342" y="102.33" width="13.2741" height="13.2703" filterUnits="userSpaceOnUse" color-interpolation-filters="sRGB">
<feFlood flood-opacity="0" result="BackgroundImageFix"/>
<feColorMatrix in="SourceAlpha" type="matrix" values="0 0 0 0 0 0 0 0 0 0 0 0 0 0 0 0 0 0 127 0" result="hardAlpha"/>
<feOffset/>
<feGaussianBlur stdDeviation="2"/>
<feColorMatrix type="matrix" values="0 0 0 0 0.517647 0 0 0 0 0.858824 0 0 0 0 0.921569 0 0 0 1 0"/>
<feBlend mode="normal" in2="BackgroundImageFix" result="effect1_dropShadow_8_777"/>
<feBlend mode="normal" in="SourceGraphic" in2="effect1_dropShadow_8_777" result="shape"/>
</filter>
<filter id="filter8_d_8_777" x="130.299" y="102.33" width="13.2741" height="13.2703" filterUnits="userSpaceOnUse" color-interpolation-filters="sRGB">
<feFlood flood-opacity="0" result="BackgroundImageFix"/>
<feColorMatrix in="SourceAlpha" type="matrix" values="0 0 0 0 0 0 0 0 0 0 0 0 0 0 0 0 0 0 127 0" result="hardAlpha"/>
<feOffset/>
<feGaussianBlur stdDeviation="2"/>
<feColorMatrix type="matrix" values="0 0 0 0 0.517647 0 0 0 0 0.858824 0 0 0 0 0.921569 0 0 0 1 0"/>
<feBlend mode="normal" in2="BackgroundImageFix" result="effect1_dropShadow_8_777"/>
<feBlend mode="normal" in="SourceGraphic" in2="effect1_dropShadow_8_777" result="shape"/>
</filter>
<filter id="filter9_iii_8_777" x="104.402" y="138.174" width="23.0178" height="71.3298" filterUnits="userSpaceOnUse" color-interpolation-filters="sRGB">
<feFlood flood-opacity="0" result="BackgroundImageFix"/>
<feBlend mode="normal" in="SourceGraphic" in2="BackgroundImageFix" result="shape"/>
<feColorMatrix in="SourceAlpha" type="matrix" values="0 0 0 0 0 0 0 0 0 0 0 0 0 0 0 0 0 0 127 0" result="hardAlpha"/>
<feOffset dy="20"/>
<feGaussianBlur stdDeviation="20"/>
<feComposite in2="hardAlpha" operator="arithmetic" k2="-1" k3="1"/>
<feColorMatrix type="matrix" values="0 0 0 0 1 0 0 0 0 1 0 0 0 0 1 0 0 0 0.5 0"/>
<feBlend mode="overlay" in2="shape" result="effect1_innerShadow_8_777"/>
<feColorMatrix in="SourceAlpha" type="matrix" values="0 0 0 0 0 0 0 0 0 0 0 0 0 0 0 0 0 0 127 0" result="hardAlpha"/>
<feOffset dy="-30"/>
<feGaussianBlur stdDeviation="30"/>
<feComposite in2="hardAlpha" operator="arithmetic" k2="-1" k3="1"/>
<feColorMatrix type="matrix" values="0 0 0 0 0 0 0 0 0 0 0 0 0 0 0 0 0 0 0.5 0"/>
<feBlend mode="overlay" in2="effect1_innerShadow_8_777" result="effect2_innerShadow_8_777"/>
<feColorMatrix in="SourceAlpha" type="matrix" values="0 0 0 0 0 0 0 0 0 0 0 0 0 0 0 0 0 0 127 0" result="hardAlpha"/>
<feOffset dy="-40"/>
<feGaussianBlur stdDeviation="10"/>
<feComposite in2="hardAlpha" operator="arithmetic" k2="-1" k3="1"/>
<feColorMatrix type="matrix" values="0 0 0 0 0 0 0 0 0 0 0 0 0 0 0 0 0 0 0.15 0"/>
<feBlend mode="overlay" in2="effect2_innerShadow_8_777" result="effect3_innerShadow_8_777"/>
</filter>
<filter id="filter10_i_8_777" x="112.791" y="175.295" width="1.9442" height="7.04395" filterUnits="userSpaceOnUse" color-interpolation-filters="sRGB">
<feFlood flood-opacity="0" result="BackgroundImageFix"/>
<feBlend mode="normal" in="SourceGraphic" in2="BackgroundImageFix" result="shape"/>
<feColorMatrix in="SourceAlpha" type="matrix" values="0 0 0 0 0 0 0 0 0 0 0 0 0 0 0 0 0 0 127 0" result="hardAlpha"/>
<feOffset dy="5"/>
<feGaussianBlur stdDeviation="3.5"/>
<feComposite in2="hardAlpha" operator="arithmetic" k2="-1" k3="1"/>
<feColorMatrix type="matrix" values="0 0 0 0 0.129412 0 0 0 0 0.686275 0 0 0 0 0.521569 0 0 0 1 0"/>
<feBlend mode="normal" in2="shape" result="effect1_innerShadow_8_777"/>
</filter>
<filter id="filter11_i_8_777" x="117.086" y="175.296" width="1.94376" height="7.04346" filterUnits="userSpaceOnUse" color-interpolation-filters="sRGB">
<feFlood flood-opacity="0" result="BackgroundImageFix"/>
<feBlend mode="normal" in="SourceGraphic" in2="BackgroundImageFix" result="shape"/>
<feColorMatrix in="SourceAlpha" type="matrix" values="0 0 0 0 0 0 0 0 0 0 0 0 0 0 0 0 0 0 127 0" result="hardAlpha"/>
<feOffset dy="5"/>
<feGaussianBlur stdDeviation="3.5"/>
<feComposite in2="hardAlpha" operator="arithmetic" k2="-1" k3="1"/>
<feColorMatrix type="matrix" values="0 0 0 0 0.129412 0 0 0 0 0.686275 0 0 0 0 0.521569 0 0 0 1 0"/>
<feBlend mode="normal" in2="shape" result="effect1_innerShadow_8_777"/>
</filter>
<filter id="filter12_i_8_777" x="114.537" y="178.187" width="2.74773" height="5.92871" filterUnits="userSpaceOnUse" color-interpolation-filters="sRGB">
<feFlood flood-opacity="0" result="BackgroundImageFix"/>
<feBlend mode="normal" in="SourceGraphic" in2="BackgroundImageFix" result="shape"/>
<feColorMatrix in="SourceAlpha" type="matrix" values="0 0 0 0 0 0 0 0 0 0 0 0 0 0 0 0 0 0 127 0" result="hardAlpha"/>
<feOffset dy="5"/>
<feGaussianBlur stdDeviation="3.5"/>
<feComposite in2="hardAlpha" operator="arithmetic" k2="-1" k3="1"/>
<feColorMatrix type="matrix" values="0 0 0 0 0.129412 0 0 0 0 0.686275 0 0 0 0 0.521569 0 0 0 1 0"/>
<feBlend mode="normal" in2="shape" result="effect1_innerShadow_8_777"/>
</filter>
<linearGradient id="paint0_linear_8_777" x1="115.089" y1="64.3982" x2="115.295" y2="238.724" gradientUnits="userSpaceOnUse">
<stop stop-color="white"/>
<stop offset="1" stop-color="#21AF85" stop-opacity="0"/>
</linearGradient>
<linearGradient id="paint1_linear_8_777" x1="115.089" y1="52.0928" x2="115.31" y2="239.134" gradientUnits="userSpaceOnUse">
<stop stop-color="white"/>
<stop offset="1" stop-color="#21AF85" stop-opacity="0"/>
</linearGradient>
<linearGradient id="paint2_linear_8_777" x1="115.911" y1="64.8084" x2="115.911" y2="218.216" gradientUnits="userSpaceOnUse">
<stop stop-color="white"/>
<stop offset="1" stop-color="#21AF85" stop-opacity="0"/>
</linearGradient>
<radialGradient id="paint3_radial_8_777" cx="0" cy="0" r="1" gradientUnits="userSpaceOnUse" gradientTransform="translate(108.85 227.686) rotate(-2.86032) scale(8.22968 4.44613)">
<stop offset="0.09" stop-color="#69B5B5"/>
<stop offset="0.35" stop-color="#D9E7E7"/>
<stop offset="0.44" stop-color="#D5E5E5"/>
<stop offset="0.55" stop-color="#C8DEDE"/>
<stop offset="0.66" stop-color="#B3D4D4"/>
<stop offset="0.89" stop-color="#BDD7D7"/>
<stop offset="1" stop-color="#C4D9D9"/>
</radialGradient>
<radialGradient id="paint4_radial_8_777" cx="0" cy="0" r="1" gradientUnits="userSpaceOnUse" gradientTransform="translate(106.836 215.544) rotate(169.773) scale(9.55651 6.65448)">
<stop offset="0.39" stop-color="#69B5B5"/>
<stop offset="0.44" stop-color="#70B8B8"/>
<stop offset="0.51" stop-color="#82C0C0"/>
<stop offset="0.58" stop-color="#A1CCCC"/>
<stop offset="0.62" stop-color="#B3D4D4"/>
<stop offset="0.75" stop-color="#DBF2F2"/>
<stop offset="0.94" stop-color="#D9E7E7"/>
</radialGradient>
<radialGradient id="paint5_radial_8_777" cx="0" cy="0" r="1" gradientUnits="userSpaceOnUse" gradientTransform="translate(104.785 197.354) rotate(169.772) scale(13.6507 9.5054)">
<stop offset="0.45" stop-color="#69B5B5"/>
<stop offset="0.61" stop-color="#B3D4D4"/>
<stop offset="0.72" stop-color="#B4C7C7"/>
<stop offset="0.85" stop-color="#C7D8D8"/>
<stop offset="0.94" stop-color="#D9E7E7"/>
</radialGradient>
<radialGradient id="paint6_radial_8_777" cx="0" cy="0" r="1" gradientUnits="userSpaceOnUse" gradientTransform="translate(109.947 210.857) rotate(-33.029) scale(18.9866 9.24949)">
<stop stop-color="#FF8742"/>
<stop offset="0.17" stop-color="#E68724"/>
<stop offset="0.38" stop-color="#C98600"/>
<stop offset="0.5" stop-color="#C48300"/>
<stop offset="0.64" stop-color="#B67900"/>
<stop offset="0.79" stop-color="#9E6800"/>
<stop offset="0.89" stop-color="#8A5B00"/>
</radialGradient>
<radialGradient id="paint7_radial_8_777" cx="0" cy="0" r="1" gradientUnits="userSpaceOnUse" gradientTransform="translate(101.203 214.589) rotate(47.4332) scale(4.75573 2.72195)">
<stop stop-color="#6661AC"/>
<stop offset="0.26" stop-color="#4A4587"/>
<stop offset="0.51" stop-color="#322E69"/>
<stop offset="1" stop-color="#383475"/>
</radialGradient>
<radialGradient id="paint8_radial_8_777" cx="0" cy="0" r="1" gradientUnits="userSpaceOnUse" gradientTransform="translate(123.115 225.668) rotate(-177.14) scale(8.22967 4.44613)">
<stop offset="0.09" stop-color="#69B5B5"/>
<stop offset="0.35" stop-color="#D9E7E7"/>
<stop offset="0.44" stop-color="#D5E5E5"/>
<stop offset="0.55" stop-color="#C8DEDE"/>
<stop offset="0.66" stop-color="#B3D4D4"/>
<stop offset="0.89" stop-color="#BDD7D7"/>
<stop offset="1" stop-color="#C4D9D9"/>
</radialGradient>
<radialGradient id="paint9_radial_8_777" cx="0" cy="0" r="1" gradientUnits="userSpaceOnUse" gradientTransform="translate(124.589 211.528) rotate(10.2275) scale(9.55651 6.65448)">
<stop offset="0.39" stop-color="#69B5B5"/>
<stop offset="0.44" stop-color="#70B8B8"/>
<stop offset="0.51" stop-color="#82C0C0"/>
<stop offset="0.58" stop-color="#A1CCCC"/>
<stop offset="0.62" stop-color="#B3D4D4"/>
<stop offset="0.75" stop-color="#DBF2F2"/>
<stop offset="0.94" stop-color="#D9E7E7"/>
</radialGradient>
<radialGradient id="paint10_radial_8_777" cx="0" cy="0" r="1" gradientUnits="userSpaceOnUse" gradientTransform="translate(126.644 193.339) rotate(10.2275) scale(13.6507 9.5054)">
<stop offset="0.45" stop-color="#69B5B5"/>
<stop offset="0.61" stop-color="#B3D4D4"/>
<stop offset="0.72" stop-color="#B4C7C7"/>
<stop offset="0.85" stop-color="#C7D8D8"/>
<stop offset="0.94" stop-color="#D9E7E7"/>
</radialGradient>
<radialGradient id="paint11_radial_8_777" cx="0" cy="0" r="1" gradientUnits="userSpaceOnUse" gradientTransform="translate(120.173 206.816) rotate(-146.971) scale(18.9866 9.24949)">
<stop stop-color="#FF8742"/>
<stop offset="0.17" stop-color="#E68724"/>
<stop offset="0.38" stop-color="#C98600"/>
<stop offset="0.5" stop-color="#C48300"/>
<stop offset="0.64" stop-color="#B67900"/>
<stop offset="0.79" stop-color="#9E6800"/>
<stop offset="0.89" stop-color="#8A5B00"/>
</radialGradient>
<radialGradient id="paint12_radial_8_777" cx="0" cy="0" r="1" gradientUnits="userSpaceOnUse" gradientTransform="translate(129.886 214.524) rotate(114.007) scale(4.04119 2.31578)">
<stop stop-color="#6661AC"/>
<stop offset="0.26" stop-color="#4A4587"/>
<stop offset="0.51" stop-color="#322E69"/>
<stop offset="1" stop-color="#383475"/>
</radialGradient>
<radialGradient id="paint13_radial_8_777" cx="0" cy="0" r="1" gradientUnits="userSpaceOnUse" gradientTransform="translate(58.8714 141.366) rotate(83.6354) scale(12.6556 10.1317)">
<stop offset="0.58" stop-color="#69B5B5"/>
<stop offset="0.61" stop-color="#B3D4D4"/>
<stop offset="0.75" stop-color="#C4D9D9"/>
<stop offset="0.93" stop-color="#D7E6E6"/>
<stop offset="0.94" stop-color="#D9E7E7"/>
</radialGradient>
<radialGradient id="paint14_radial_8_777" cx="0" cy="0" r="1" gradientUnits="userSpaceOnUse" gradientTransform="translate(87.82 138.17) rotate(83.6354) scale(18.0766 14.4715)">
<stop offset="0.58" stop-color="#69B5B5"/>
<stop offset="0.61" stop-color="#B3D4D4"/>
<stop offset="0.75" stop-color="#C4D9D9"/>
<stop offset="0.93" stop-color="#D7E6E6"/>
<stop offset="0.94" stop-color="#D9E7E7"/>
</radialGradient>
<radialGradient id="paint15_radial_8_777" cx="0" cy="0" r="1" gradientUnits="userSpaceOnUse" gradientTransform="translate(87.82 138.17) rotate(83.6354) scale(18.0766 14.4715)">
<stop offset="0.58" stop-color="#21AF85"/>
<stop offset="0.61" stop-color="#B3D4D4"/>
<stop offset="0.75" stop-color="#C4D9D9"/>
<stop offset="0.93" stop-color="#D7E6E6"/>
<stop offset="0.94" stop-color="#D9E7E7"/>
</radialGradient>
<radialGradient id="paint16_radial_8_777" cx="0" cy="0" r="1" gradientUnits="userSpaceOnUse" gradientTransform="translate(170.611 144.002) rotate(96.3448) scale(12.6062 10.0698)">
<stop offset="0.58" stop-color="#69B5B5"/>
<stop offset="0.61" stop-color="#B3D4D4"/>
<stop offset="0.75" stop-color="#C4D9D9"/>
<stop offset="0.93" stop-color="#D7E6E6"/>
<stop offset="0.94" stop-color="#D9E7E7"/>
</radialGradient>
<radialGradient id="paint17_radial_8_777" cx="0" cy="0" r="1" gradientUnits="userSpaceOnUse" gradientTransform="translate(141.816 140.767) rotate(96.3448) scale(18.0059 14.383)">
<stop offset="0.58" stop-color="#21AF85"/>
<stop offset="0.61" stop-color="#B3D4D4"/>
<stop offset="0.75" stop-color="#C4D9D9"/>
<stop offset="0.93" stop-color="#D7E6E6"/>
<stop offset="0.94" stop-color="#D9E7E7"/>
</radialGradient>
<radialGradient id="paint18_radial_8_777" cx="0" cy="0" r="1" gradientUnits="userSpaceOnUse" gradientTransform="translate(114.49 113.746) scale(45.8849 38.9738)">
<stop offset="0.53" stop-color="#69B5B5"/>
<stop offset="0.61" stop-color="#B3D4D4"/>
<stop offset="0.75" stop-color="#C4D9D9"/>
<stop offset="0.87" stop-color="#D7E8E8"/>
<stop offset="0.94" stop-color="#E4F2F2"/>
<stop offset="1" stop-color="#D0E1E1"/>
</radialGradient>
<linearGradient id="paint19_linear_8_777" x1="211.294" y1="156.486" x2="97.3865" y2="156.802" gradientUnits="userSpaceOnUse">
<stop offset="0.84" stop-color="#C1C0D8" stop-opacity="0.31"/>
<stop offset="0.85" stop-color="#3A3583"/>
</linearGradient>
<radialGradient id="paint20_radial_8_777" cx="0" cy="0" r="1" gradientUnits="userSpaceOnUse" gradientTransform="translate(115.166 178.018) scale(19.6944 19.6536)">
<stop offset="0.76" stop-color="white"/>
<stop offset="0.8" stop-color="#558B8B" stop-opacity="0.95"/>
<stop offset="0.84" stop-color="#669797" stop-opacity="0.82"/>
<stop offset="0.89" stop-color="#82ABAB" stop-opacity="0.47"/>
<stop offset="0.95" stop-color="#A9C6C6" stop-opacity="0.3"/>
<stop offset="1" stop-color="#D0E1E1" stop-opacity="0"/>
</radialGradient>
<radialGradient id="paint21_radial_8_777" cx="0" cy="0" r="1" gradientUnits="userSpaceOnUse" gradientTransform="translate(63.707 133.773) rotate(-2.17841) scale(28.8159 17.8529)">
<stop stop-color="#FF8742"/>
<stop offset="0.25" stop-color="#E68724"/>
<stop offset="0.58" stop-color="#C98600"/>
<stop offset="0.62" stop-color="#C88905"/>
<stop offset="0.68" stop-color="#C49013"/>
<stop offset="0.74" stop-color="#BE9C2C"/>
<stop offset="0.8" stop-color="#B6AE4D"/>
<stop offset="0.86" stop-color="#ABC478"/>
<stop offset="0.93" stop-color="#94EBD1"/>
<stop offset="1" stop-color="#5FDCB7"/>
</radialGradient>
<radialGradient id="paint22_radial_8_777" cx="0" cy="0" r="1" gradientUnits="userSpaceOnUse" gradientTransform="translate(159.727 133.773) rotate(-2.18104) scale(28.7812 17.8528)">
<stop stop-color="#FF8742"/>
<stop offset="0.25" stop-color="#E68724"/>
<stop offset="0.58" stop-color="#C98600"/>
<stop offset="0.62" stop-color="#C88905"/>
<stop offset="0.68" stop-color="#C49013"/>
<stop offset="0.74" stop-color="#BE9C2C"/>
<stop offset="0.8" stop-color="#B6AE4D"/>
<stop offset="0.86" stop-color="#ABC478"/>
<stop offset="0.93" stop-color="#94EBD1"/>
<stop offset="1" stop-color="#5FDCB7"/>
</radialGradient>
<radialGradient id="paint23_radial_8_777" cx="0" cy="0" r="1" gradientUnits="userSpaceOnUse" gradientTransform="translate(57.7214 130.483) rotate(79.6263) scale(7.37757 6.1311)">
<stop stop-color="#6661AC"/>
<stop offset="0.26" stop-color="#4A4587"/>
<stop offset="0.51" stop-color="#322E69"/>
<stop offset="1" stop-color="#383475"/>
</radialGradient>
<radialGradient id="paint24_radial_8_777" cx="0" cy="0" r="1" gradientUnits="userSpaceOnUse" gradientTransform="translate(175.025 132.597) rotate(100.374) scale(7.37757 6.1311)">
<stop stop-color="#6661AC"/>
<stop offset="0.26" stop-color="#4A4587"/>
<stop offset="0.51" stop-color="#322E69"/>
<stop offset="1" stop-color="#383475"/>
</radialGradient>
<radialGradient id="paint25_radial_8_777" cx="0" cy="0" r="1" gradientUnits="userSpaceOnUse" gradientTransform="translate(122.117 80.005) scale(57.0159 44.6184)">
<stop offset="0.09" stop-color="white"/>
<stop offset="0.26" stop-color="#FCFEFE"/>
<stop offset="0.37" stop-color="#F4F9F9"/>
<stop offset="0.46" stop-color="#E6F1F1"/>
<stop offset="0.54" stop-color="#D2E5E5"/>
<stop offset="0.61" stop-color="#B8D7D7"/>
<stop offset="0.62" stop-color="#B3D4D4"/>
<stop offset="0.72" stop-color="#C4D9D9"/>
<stop offset="1" stop-color="#D3E0E0"/>
</radialGradient>
<radialGradient id="paint26_radial_8_777" cx="0" cy="0" r="1" gradientUnits="userSpaceOnUse" gradientTransform="translate(115.27 66.3225) scale(23.6615 15.0834)">
<stop offset="0.76" stop-color="white" stop-opacity="0"/>
<stop offset="0.87" stop-color="#9694BD" stop-opacity="0.53"/>
<stop offset="0.95" stop-color="#544F93" stop-opacity="0.87"/>
<stop offset="1" stop-color="#3A3583"/>
</radialGradient>
<radialGradient id="paint27_radial_8_777" cx="0" cy="0" r="1" gradientUnits="userSpaceOnUse" gradientTransform="translate(114.942 98.9171) rotate(90) scale(34.2432 54.4863)">
<stop offset="0.66" stop-color="white" stop-opacity="0"/>
<stop offset="0.67" stop-color="white" stop-opacity="0.19"/>
<stop offset="0.68" stop-color="white" stop-opacity="0.37"/>
<stop offset="0.69" stop-color="white" stop-opacity="0.51"/>
<stop offset="0.7" stop-color="white" stop-opacity="0.62"/>
<stop offset="0.71" stop-color="white" stop-opacity="0.68"/>
<stop offset="0.72" stop-color="white" stop-opacity="0.7"/>
<stop offset="0.74" stop-color="white" stop-opacity="0.62"/>
<stop offset="0.76" stop-color="white" stop-opacity="0.43"/>
<stop offset="0.81" stop-color="white" stop-opacity="0.11"/>
<stop offset="0.82" stop-color="white" stop-opacity="0"/>
</radialGradient>
<radialGradient id="paint28_radial_8_777" cx="0" cy="0" r="1" gradientUnits="userSpaceOnUse" gradientTransform="translate(109.015 110.346) rotate(0.25981) scale(69.9267 18.1677)">
<stop offset="0.15" stop-color="#6661AC"/>
<stop offset="0.36" stop-color="#5F5BA4"/>
<stop offset="0.67" stop-color="#4E498F"/>
<stop offset="0.97" stop-color="#383475"/>
</radialGradient>
<radialGradient id="paint29_radial_8_777" cx="0" cy="0" r="1" gradientUnits="userSpaceOnUse" gradientTransform="translate(115.339 91.2746) scale(45.6863 24.6526)">
<stop offset="0.17" stop-color="#0B0B52"/>
<stop offset="0.48" stop-color="#0D0D54" stop-opacity="0.97"/>
<stop offset="0.64" stop-color="#16155D" stop-opacity="0.88"/>
<stop offset="0.76" stop-color="#25236B" stop-opacity="0.72"/>
<stop offset="0.86" stop-color="#393780" stop-opacity="0.49"/>
<stop offset="0.95" stop-color="#54509A" stop-opacity="0.2"/>
<stop offset="1" stop-color="#6661AC" stop-opacity="0"/>
</radialGradient>
<radialGradient id="paint30_radial_8_777" cx="0" cy="0" r="1" gradientUnits="userSpaceOnUse" gradientTransform="translate(115.337 79.725) rotate(90) scale(35.4341 67.3739)">
<stop offset="0.65" stop-color="white" stop-opacity="0"/>
<stop offset="0.67" stop-color="white" stop-opacity="0.17"/>
<stop offset="0.68" stop-color="white" stop-opacity="0.31"/>
<stop offset="0.7" stop-color="white" stop-opacity="0.42"/>
<stop offset="0.72" stop-color="white" stop-opacity="0.48"/>
<stop offset="0.73" stop-color="white" stop-opacity="0.5"/>
<stop offset="0.75" stop-color="white" stop-opacity="0.42"/>
<stop offset="0.78" stop-color="white" stop-opacity="0.23"/>
<stop offset="0.82" stop-color="white" stop-opacity="0"/>
</radialGradient>
<linearGradient id="paint31_linear_8_777" x1="115.387" y1="118.78" x2="115.633" y2="139.587" gradientUnits="userSpaceOnUse">
<stop offset="0.31" stop-color="white" stop-opacity="0"/>
<stop offset="1" stop-color="#21AF85"/>
</linearGradient>
<clipPath id="clip0_8_777">
<rect width="231" height="274" fill="white"/>
</clipPath>
</defs>
</svg>
