<svg width="32" height="32" viewBox="0 0 32 32" fill="none" xmlns="http://www.w3.org/2000/svg">
<rect width="32" height="32" rx="8" fill="#3478F5"/>
<path d="M20.8203 6H11.1803C9.05031 6 7.32031 7.74 7.32031 9.86V23.95C7.32031 25.75 8.61031 26.51 10.1903 25.64L15.0703 22.93C15.5903 22.64 16.4303 22.64 16.9403 22.93L21.8203 25.64C23.4003 26.52 24.6903 25.76 24.6903 23.95V9.86C24.6803 7.74 22.9503 6 20.8203 6ZM18.5003 15.4H13.5003C13.0903 15.4 12.7503 15.06 12.7503 14.65C12.7503 14.24 13.0903 13.9 13.5003 13.9H18.5003C18.9103 13.9 19.2503 14.24 19.2503 14.65C19.2503 15.06 18.9103 15.4 18.5003 15.4Z" fill="white"/>
</svg>
