<svg width="28" height="29" viewBox="0 0 28 29" fill="none" xmlns="http://www.w3.org/2000/svg">
<path opacity="0.25" fill-rule="evenodd" clip-rule="evenodd" d="M16.1265 4.86688C15.7808 4.72479 15.3427 4.72479 14.4663 4.72479C13.5899 4.72479 13.1517 4.72479 12.8061 4.86688C12.3452 5.05634 11.979 5.41973 11.7881 5.87712C11.701 6.08591 11.6669 6.32873 11.6535 6.68292C11.6339 7.20343 11.365 7.68523 10.9104 7.94566C10.4559 8.20609 9.901 8.19636 9.437 7.95297C9.12124 7.78734 8.8923 7.69524 8.66653 7.66574C8.17196 7.60112 7.67178 7.73413 7.27602 8.03551C6.9792 8.26155 6.76011 8.63816 6.32192 9.3914C5.88373 10.1446 5.66463 10.5212 5.6158 10.8894C5.55069 11.3802 5.68471 11.8766 5.98839 12.2694C6.12699 12.4486 6.3218 12.5993 6.62413 12.7879C7.0686 13.065 7.35458 13.5372 7.35455 14.0581C7.35452 14.579 7.06855 15.0511 6.62413 15.3282C6.32174 15.5168 6.12692 15.6675 5.98829 15.8468C5.68462 16.2396 5.5506 16.736 5.61571 17.2268C5.66454 17.5949 5.88364 17.9716 6.32183 18.7248C6.76002 19.478 6.97911 19.8546 7.27593 20.0807C7.67169 20.3821 8.17187 20.5151 8.66644 20.4504C8.8922 20.4209 9.12113 20.3289 9.43685 20.1632C9.90089 19.9198 10.4558 19.9101 10.9104 20.1706C11.3649 20.431 11.6339 20.9128 11.6535 21.4334C11.6669 21.7875 11.701 22.0303 11.7881 22.2391C11.979 22.6965 12.3452 23.0599 12.8061 23.2494C13.1517 23.3915 13.5899 23.3915 14.4663 23.3915C15.3427 23.3915 15.7808 23.3915 16.1265 23.2494C16.5874 23.0599 16.9535 22.6965 17.1444 22.2391C17.2316 22.0303 17.2657 21.7875 17.279 21.4333C17.2986 20.9128 17.5676 20.431 18.0221 20.1706C18.4766 19.9101 19.0316 19.9198 19.4956 20.1632C19.8113 20.3288 20.0403 20.4209 20.266 20.4504C20.7606 20.515 21.2608 20.382 21.6565 20.0806C21.9533 19.8546 22.1724 19.478 22.6106 18.7247C23.0488 17.9715 23.2679 17.5949 23.3168 17.2268C23.3819 16.7359 23.2478 16.2395 22.9442 15.8468C22.8055 15.6675 22.6107 15.5168 22.3084 15.3282C21.8639 15.0511 21.578 14.579 21.578 14.058C21.578 13.5372 21.864 13.0651 22.3084 12.788C22.6108 12.5995 22.8056 12.4487 22.9443 12.2694C23.2479 11.8767 23.382 11.3803 23.3168 10.8894C23.268 10.5213 23.0489 10.1447 22.6107 9.39146C22.1725 8.63823 21.9534 8.26161 21.6566 8.03558C21.2609 7.7342 20.7607 7.60119 20.2661 7.66581C20.0404 7.6953 19.8114 7.78739 19.4957 7.953C19.0317 8.19641 18.4767 8.20614 18.0222 7.94569C17.5676 7.68524 17.2986 7.20341 17.279 6.68287C17.2657 6.3287 17.2316 6.0859 17.1444 5.87712C16.9535 5.41973 16.5874 5.05634 16.1265 4.86688Z" fill="#6F747A"/>
<path d="M17.2881 14.0581C17.2881 15.6045 16.025 16.8581 14.4668 16.8581C12.9087 16.8581 11.6455 15.6045 11.6455 14.0581C11.6455 12.5117 12.9087 11.2581 14.4668 11.2581C16.025 11.2581 17.2881 12.5117 17.2881 14.0581Z" fill="#6F747A"/>
</svg>
